<svg width="442" height="332" viewBox="0 0 442 332" fill="none" xmlns="http://www.w3.org/2000/svg">
<g clip-path="url(#clip0_99_715)">
<path d="M421.37 255.53C421.37 255.53 416.37 216.32 383.24 203.53C366.53 197.1 352.5 199.79 352.5 199.79C348.577 190.753 342.099 183.06 333.863 177.656C325.627 172.252 315.991 169.372 306.14 169.37C304.55 169.37 302.99 169.46 301.44 169.6C294.554 159.509 285.367 151.201 274.636 145.363C263.905 139.525 251.939 136.323 239.727 136.023C227.514 135.723 215.406 138.333 204.401 143.638C193.397 148.942 183.813 156.789 176.44 166.53C166.757 161.296 156.023 158.302 145.028 157.768C134.034 157.234 123.06 159.175 112.916 163.446C102.771 167.717 93.7147 174.211 86.4136 182.448C79.1124 190.685 73.7529 200.456 70.73 211.04C67.3359 210.053 63.8243 209.528 60.29 209.48C34.6 208.65 12.58 233.99 12.75 255.57L421.37 255.53Z" fill="#C0DFF1"/>
<path d="M290.68 291.65L308.5 255.66L291.19 255.54L281.93 297.17L301.67 297.33L289.22 331.62L309.71 291.84L290.68 291.65Z" fill="#5C5C5C"/>
<path d="M159.16 159.363H143.438V187H105.352V159.363H48.418V131.043L107.793 44.2266H143.438V130.555H159.16V159.363ZM105.352 130.555V113.953C105.352 110.828 105.449 106.629 105.645 101.355C105.905 96.0169 106.1 93.2174 106.23 92.957H105.156C102.943 97.9701 100.436 102.658 97.6367 107.02L81.8164 130.555H105.352ZM272.344 115.809C272.344 141.069 268.112 159.591 259.648 171.375C251.185 183.094 238.229 188.953 220.781 188.953C203.724 188.953 190.866 182.833 182.207 170.594C173.548 158.289 169.219 140.027 169.219 115.809C169.219 90.418 173.451 71.7982 181.914 59.9492C190.378 48.1003 203.333 42.1758 220.781 42.1758C237.773 42.1758 250.599 48.3607 259.258 60.7305C267.982 73.0352 272.344 91.3945 272.344 115.809ZM207.598 115.809C207.598 131.954 208.607 143.055 210.625 149.109C212.643 155.164 216.029 158.191 220.781 158.191C225.599 158.191 228.984 155.066 230.938 148.816C232.956 142.566 233.965 131.564 233.965 115.809C233.965 99.9883 232.956 88.9206 230.938 82.6055C228.919 76.2253 225.534 73.0352 220.781 73.0352C216.029 73.0352 212.643 76.0951 210.625 82.2148C208.607 88.3346 207.598 99.5326 207.598 115.809ZM393.535 159.363H377.812V187H339.727V159.363H282.793V131.043L342.168 44.2266H377.812V130.555H393.535V159.363ZM339.727 130.555V113.953C339.727 110.828 339.824 106.629 340.02 101.355C340.28 96.0169 340.475 93.2174 340.605 92.957H339.531C337.318 97.9701 334.811 102.658 332.012 107.02L316.191 130.555H339.727Z" fill="#5C5C5C"/>
<path d="M149.25 208.669C149.25 208.669 147.44 194.349 135.33 189.669C131.752 188.258 127.871 187.79 124.06 188.309C122.633 185.009 120.274 182.197 117.272 180.218C114.27 178.239 110.756 177.179 107.16 177.169C106.58 177.169 106.01 177.169 105.45 177.249C102.931 173.566 99.5724 170.535 95.6509 168.407C91.7294 166.278 87.3578 165.113 82.8971 165.008C78.4364 164.902 74.0146 165.859 69.9969 167.8C65.9791 169.741 62.4806 172.609 59.7903 176.169C56.2536 174.26 52.3337 173.167 48.3192 172.973C44.3046 172.778 40.2975 173.485 36.5924 175.043C32.8874 176.601 29.5787 178.97 26.9098 181.975C24.2409 184.981 22.2797 188.546 21.1703 192.409C19.9317 192.049 18.6502 191.857 17.3603 191.839C7.98033 191.539 -0.0596663 200.839 0.000333678 208.679L149.25 208.669Z" fill="#D5EAF6"/>
<path d="M441.77 221.68C441.77 221.68 439.77 206.16 426.69 201.11C422.827 199.583 418.636 199.073 414.52 199.63C412.963 196.063 410.4 193.028 407.144 190.897C403.888 188.765 400.081 187.63 396.19 187.63C395.563 187.63 394.943 187.66 394.33 187.72C391.608 183.726 387.974 180.437 383.729 178.125C379.484 175.813 374.75 174.545 369.918 174.426C365.086 174.307 360.294 175.34 355.941 177.439C351.587 179.539 347.795 182.645 344.88 186.5C341.053 184.43 336.811 183.244 332.466 183.03C328.121 182.815 323.783 183.577 319.771 185.26C315.76 186.943 312.176 189.503 309.284 192.753C306.392 196.003 304.265 199.86 303.06 204.04C301.716 203.653 300.328 203.444 298.93 203.42C288.77 203.09 280.06 213.12 280.13 221.66L441.77 221.68Z" fill="#ABD4ED"/>
</g>
<defs>
<clipPath id="clip0_99_715">
<rect width="442" height="332" fill="white"/>
</clipPath>
</defs>
</svg>
