<svg width="232" height="307" viewBox="0 0 232 307" fill="none" xmlns="http://www.w3.org/2000/svg">
<g clip-path="url(#clip0_97_688)">
<path d="M59.7944 130.569C50.9355 130.559 42.4423 127.042 36.1781 120.79C29.9139 114.537 26.3905 106.06 26.3809 97.2174V32.6242C26.3809 31.6596 26.7648 30.7345 27.4481 30.0524C28.1314 29.3703 29.0583 28.9872 30.0246 28.9872C30.991 28.9872 31.9179 29.3703 32.6012 30.0524C33.2845 30.7345 33.6684 31.6596 33.6684 32.6242V97.2174C33.6684 104.191 36.444 110.88 41.3846 115.811C46.3251 120.743 53.026 123.513 60.013 123.513C66.9937 123.503 73.6852 120.729 78.6179 115.798C83.5506 110.868 86.3212 104.185 86.3212 97.2174V29.2781C86.3212 28.3135 86.7051 27.3884 87.3884 26.7064C88.0717 26.0243 88.9986 25.6411 89.965 25.6411C90.9314 25.6411 91.8582 26.0243 92.5415 26.7064C93.2248 27.3884 93.6087 28.3135 93.6087 29.2781V97.2174C93.6091 101.631 92.7317 106.001 91.0275 110.074C89.3233 114.146 86.8262 117.841 83.6808 120.943C80.5355 124.045 76.8046 126.493 72.7043 128.146C68.604 129.798 64.2159 130.622 59.7944 130.569Z" fill="#5C5C5C"/>
<path d="M177.267 15.4169L18.2137 40.2209C9.56469 41.5697 3.64867 49.6615 4.99999 58.2944L41.3246 290.357C42.676 298.99 50.7829 304.895 59.4319 303.546L218.485 278.742C227.134 277.394 233.05 269.302 231.699 260.669L195.374 28.6061C194.023 19.9731 185.916 14.0681 177.267 15.4169Z" fill="#2E94D1"/>
<path opacity="0.6" d="M177.267 15.4169L18.2137 40.2209C9.56469 41.5697 3.64867 49.6615 4.99999 58.2944L41.3246 290.357C42.676 298.99 50.7829 304.895 59.4319 303.546L218.485 278.742C227.134 277.394 233.05 269.302 231.699 260.669L195.374 28.6061C194.023 19.9731 185.916 14.0681 177.267 15.4169Z" fill="white"/>
<path opacity="0.2" d="M183.17 139.629L55.6452 160.154C53.6584 160.474 52.3076 162.34 52.6279 164.324L52.8135 165.473C53.1339 167.456 55.0042 168.804 56.9909 168.484L184.516 147.959C186.503 147.64 187.854 145.773 187.533 143.79L187.348 142.641C187.027 140.658 185.157 139.309 183.17 139.629Z" fill="#282828"/>
<path opacity="0.2" d="M188.675 173.672L61.1501 194.197C59.1633 194.517 57.8124 196.384 58.1328 198.367L58.3184 199.516C58.6388 201.499 60.5091 202.847 62.4958 202.528L190.021 182.003C192.008 181.683 193.358 179.816 193.038 177.833L192.852 176.684C192.532 174.701 190.662 173.353 188.675 173.672Z" fill="#282828"/>
<path opacity="0.2" d="M194.186 207.752L66.6608 228.276C64.6741 228.596 63.3232 230.463 63.6435 232.446L63.8292 233.595C64.1495 235.578 66.0198 236.927 68.0065 236.607L195.532 216.082C197.518 215.762 198.869 213.895 198.549 211.912L198.363 210.763C198.043 208.78 196.173 207.432 194.186 207.752Z" fill="#282828"/>
<path d="M173.912 23.6221L13.9928 42.0627C5.29665 43.0655 -0.938512 50.9149 0.0661273 59.5948L27.0719 292.921C28.0765 301.601 35.9405 307.825 44.6366 306.822L204.556 288.381C213.252 287.378 219.487 279.529 218.482 270.849L191.477 37.5229C190.472 28.8429 182.608 22.6194 173.912 23.6221Z" fill="#2E94D1"/>
<path opacity="0.7" d="M173.912 23.6221L13.9928 42.0627C5.29665 43.0655 -0.938512 50.9149 0.0661273 59.5948L27.0719 292.921C28.0765 301.601 35.9405 307.825 44.6366 306.822L204.556 288.381C213.252 287.378 219.487 279.529 218.482 270.849L191.477 37.5229C190.472 28.8429 182.608 22.6194 173.912 23.6221Z" fill="white"/>
<path opacity="0.2" d="M174.799 147.977L46.5537 163.399C44.5557 163.64 43.1312 165.451 43.3719 167.445L43.5114 168.601C43.7521 170.595 45.5669 172.017 47.5649 171.777L175.81 156.354C177.808 156.114 179.232 154.303 178.991 152.308L178.852 151.153C178.611 149.159 176.796 147.737 174.799 147.977Z" fill="#282828"/>
<path opacity="0.2" d="M178.947 182.223L50.7021 197.646C48.7041 197.886 47.2796 199.697 47.5203 201.691L47.6598 202.847C47.9005 204.841 49.7153 206.263 51.7133 206.023L179.958 190.6C181.956 190.36 183.381 188.549 183.14 186.554L183 185.399C182.76 183.405 180.945 181.983 178.947 182.223Z" fill="#282828"/>
<path opacity="0.2" d="M183.06 216.51L54.8149 231.933C52.8169 232.173 51.3924 233.984 51.6331 235.979L51.7726 237.134C52.0133 239.128 53.8281 240.55 55.8261 240.31L184.071 224.887C186.069 224.647 187.493 222.836 187.253 220.841L187.113 219.686C186.873 217.692 185.058 216.27 183.06 216.51Z" fill="#282828"/>
<path d="M205.546 96.0898L205.874 293.616C205.879 294.221 205.764 294.82 205.535 295.381C205.306 295.941 204.969 296.45 204.542 296.88C204.115 297.309 203.608 297.65 203.048 297.883C202.489 298.115 201.889 298.235 201.283 298.235L18.2917 298.562C17.6857 298.567 17.0848 298.452 16.5235 298.224C15.9623 297.996 15.4519 297.659 15.0217 297.233C14.5915 296.807 14.25 296.3 14.017 295.742C13.784 295.183 13.6641 294.584 13.6641 293.98L13.1904 37.0247C13.1904 35.7997 13.6779 34.6248 14.5458 33.7586C15.4136 32.8924 16.5907 32.4058 17.818 32.4058L141.124 32.1875L205.546 96.0898Z" fill="#2E94D1"/>
<g opacity="0.8">
<path d="M205.546 96.0898L205.874 293.616C205.879 294.221 205.764 294.82 205.535 295.381C205.306 295.941 204.969 296.45 204.542 296.88C204.115 297.309 203.608 297.65 203.048 297.883C202.489 298.115 201.889 298.235 201.283 298.235L18.2917 298.562C17.6857 298.567 17.0848 298.452 16.5235 298.224C15.9623 297.996 15.4519 297.659 15.0217 297.233C14.5915 296.807 14.25 296.3 14.017 295.742C13.784 295.183 13.6641 294.584 13.6641 293.98L13.1904 37.0247C13.1904 35.7997 13.6779 34.6248 14.5458 33.7586C15.4136 32.8924 16.5907 32.4058 17.818 32.4058L141.124 32.1875L205.546 96.0898Z" fill="white"/>
</g>
<path d="M174.005 155.644L44.8342 156.274C42.8218 156.284 41.1984 157.92 41.2082 159.929L41.2139 161.093C41.2238 163.101 42.8631 164.722 44.8755 164.712L174.046 164.082C176.059 164.072 177.682 162.436 177.672 160.427L177.666 159.263C177.657 157.255 176.017 155.634 174.005 155.644Z" fill="#5C5C5C"/>
<path d="M173.99 190.032L44.8195 190.64C42.8071 190.649 41.1835 192.285 41.193 194.294L41.1984 195.458C41.2079 197.466 42.847 199.087 44.8594 199.077L174.03 198.47C176.043 198.46 177.666 196.824 177.657 194.816L177.651 193.652C177.642 191.643 176.003 190.023 173.99 190.032Z" fill="#5C5C5C"/>
<path d="M174.307 224.636L45.1359 225.266C43.1235 225.276 41.5002 226.912 41.51 228.921L41.5157 230.085C41.5255 232.093 43.1649 233.714 45.1772 233.704L174.348 233.074C176.36 233.064 177.984 231.428 177.974 229.419L177.968 228.255C177.958 226.246 176.319 224.626 174.307 224.636Z" fill="#5C5C5C"/>
<path d="M141.051 32.0059V91.6164C141.065 92.2214 141.199 92.8177 141.446 93.3707C141.692 93.9237 142.045 94.4225 142.486 94.8384C142.926 95.2544 143.445 95.5791 144.012 95.7939C144.578 96.0087 145.182 96.1093 145.788 96.09H205.291L141.051 32.0059Z" fill="#2E94D1"/>
<path opacity="0.9" d="M141.051 32.0059V91.6164C141.065 92.2214 141.199 92.8177 141.446 93.3707C141.692 93.9237 142.045 94.4225 142.486 94.8384C142.926 95.2544 143.445 95.5791 144.012 95.7939C144.578 96.0087 145.182 96.1093 145.788 96.09H205.291L141.051 32.0059Z" fill="white"/>
<path opacity="0.5" d="M174.005 155.644L44.8342 156.274C42.8218 156.284 41.1984 157.92 41.2082 159.929L41.2139 161.093C41.2238 163.101 42.8631 164.722 44.8755 164.712L174.046 164.082C176.059 164.072 177.682 162.436 177.672 160.427L177.666 159.263C177.657 157.255 176.017 155.634 174.005 155.644Z" fill="white"/>
<path opacity="0.5" d="M173.99 190.032L44.8195 190.64C42.8071 190.649 41.1835 192.285 41.193 194.294L41.1984 195.458C41.2079 197.466 42.847 199.087 44.8594 199.077L174.03 198.47C176.043 198.46 177.666 196.824 177.657 194.816L177.651 193.652C177.642 191.643 176.003 190.023 173.99 190.032Z" fill="white"/>
<path opacity="0.5" d="M174.307 224.636L45.1359 225.266C43.1235 225.276 41.5002 226.912 41.51 228.921L41.5157 230.085C41.5255 232.093 43.1649 233.714 45.1772 233.704L174.348 233.074C176.36 233.064 177.984 231.428 177.974 229.419L177.968 228.255C177.958 226.246 176.319 224.626 174.307 224.636Z" fill="white"/>
<path d="M74.7342 36.261H67.6653V24.1497C67.6556 19.6191 65.8482 15.2768 62.6386 12.0731C59.429 8.86947 55.0786 7.06542 50.5395 7.05581C46.0004 7.06542 41.6499 8.86947 38.4403 12.0731C35.2307 15.2768 33.4233 19.6191 33.4136 24.1497V32.7331H26.3447V24.1497C26.3544 17.7478 28.9065 11.6108 33.4418 7.08389C37.9771 2.55702 44.1256 0.00961979 50.5395 0C56.9534 0.00961979 63.1018 2.55702 67.6371 7.08389C72.1724 11.6108 74.7246 17.7478 74.7342 24.1497V36.261Z" fill="#5C5C5C"/>
<path d="M59.5759 100.345C55.562 100.336 51.7158 98.7374 48.881 95.901C46.0461 93.0646 44.4541 89.2218 44.4541 85.2153V29.3509C44.4541 28.3863 44.838 27.4612 45.5213 26.7791C46.2047 26.097 47.1315 25.7139 48.0979 25.7139C49.0643 25.7139 49.9911 26.097 50.6744 26.7791C51.3578 27.4612 51.7417 28.3863 51.7417 29.3509V85.179C51.7369 86.2376 51.9417 87.2867 52.3442 88.2661C52.7468 89.2455 53.3391 90.1358 54.0874 90.8861C54.8356 91.6363 55.725 92.2317 56.7043 92.6379C57.6837 93.0441 58.7339 93.2532 59.7945 93.2532C61.9399 93.2532 63.9974 92.4025 65.5144 90.8883C67.0314 89.3741 67.8837 87.3204 67.8837 85.179V32.7333C67.8837 31.7687 68.2676 30.8436 68.9509 30.1616C69.6343 29.4795 70.5611 29.0963 71.5275 29.0963C72.4939 29.0963 73.4207 29.4795 74.104 30.1616C74.7874 30.8436 75.1713 31.7687 75.1713 32.7333V85.179C75.172 87.2048 74.7661 89.2102 73.9775 91.0768C73.189 92.9435 72.0338 94.6335 70.5801 96.0472C69.1264 97.4609 67.4038 98.5695 65.5137 99.3078C63.6237 100.046 61.6047 100.399 59.5759 100.345Z" fill="#5C5C5C"/>
</g>
<defs>
<clipPath id="clip0_97_688">
<rect width="232" height="307" fill="white"/>
</clipPath>
</defs>
</svg>
