<svg width="769" height="60" viewBox="0 0 769 60" fill="none" xmlns="http://www.w3.org/2000/svg">
<path d="M90 29.992L60.2249 0H29.7751L0 30L29.7751 60H60.2963L90 29.992ZM32.474 53.4355L9.2556 30L32.5137 6.56451H57.5657L68.2739 17.3507L60.6853 25.0027L53.1205 17.3827H36.9271L24.3932 30L47.6592 53.4355H32.474ZM57.5895 53.4355L34.3235 30L39.9356 24.355H50.0723L55.6844 30L52.5966 33.1103L57.5578 38.1077L65.6147 30L73.2113 22.3561L80.8 30L57.5895 53.4355Z" fill="url(#paint0_linear_48_845)"/>
<path d="M157.804 25.5655C157.804 20.0398 154.151 16 146.927 16H134V44H140.422V35.0846H144.038L150.823 44H158L150.777 34.6017C152.822 34.1481 154.643 32.9967 155.926 31.3467C157.21 29.6967 157.874 27.6518 157.804 25.5655ZM146.331 29.401H140.384V21.6836H146.331C149.5 21.6836 151.14 23.0859 151.14 25.5283C151.14 27.9708 149.537 29.401 146.331 29.401Z" fill="#262526"/>
<path d="M174.543 27.8779L167.475 16H160L171.27 33.998V44H177.768V33.8773L189 16H181.61L174.543 27.8779Z" fill="#262526"/>
<path d="M204.959 16H192V44H198.541V35.326H204.959C212.278 35.2796 216 31.2862 216 25.6398C216 19.9934 212.278 16 204.959 16ZM204.389 29.5589H198.541V21.7672H204.389C207.541 21.7672 209.259 23.1231 209.259 25.6398C209.259 28.1566 207.541 29.5589 204.389 29.5589Z" fill="#262526"/>
<path d="M218 21.795H226.674V44H233.335V21.795H242V16H218V21.795Z" fill="#262526"/>
<path d="M259.711 15.0026C256.758 15.0594 253.886 15.9873 251.458 17.6697C249.029 19.3521 247.152 21.7142 246.061 24.4596C244.969 27.205 244.713 30.2115 245.324 33.102C245.935 35.9924 247.386 38.6381 249.495 40.7072C251.604 42.7762 254.277 44.1764 257.178 44.7322C260.08 45.288 263.081 44.9745 265.805 43.8312C268.529 42.6879 270.855 40.7656 272.491 38.3055C274.127 35.8454 274.999 32.957 275 30.0027C274.999 28.0087 274.601 26.0349 273.829 24.1965C273.056 22.3581 271.925 20.6921 270.502 19.2956C269.079 17.8991 267.392 16.8002 265.539 16.0631C263.686 15.3261 261.705 14.9655 259.711 15.0026ZM259.711 38.6621C257.992 38.6946 256.302 38.2145 254.857 37.2829C253.411 36.3514 252.276 35.0106 251.595 33.4314C250.915 31.8522 250.72 30.1062 251.035 28.4158C251.351 26.7254 252.162 25.1672 253.367 23.9397C254.571 22.7123 256.113 21.8711 257.797 21.5235C259.481 21.1759 261.231 21.3376 262.823 21.9879C264.415 22.6383 265.777 23.7478 266.736 25.1752C267.695 26.6026 268.207 28.2831 268.207 30.0027C268.244 31.1359 268.05 32.2648 267.638 33.3211C267.226 34.3774 266.604 35.3393 265.81 36.1486C265.016 36.958 264.067 37.598 263.018 38.03C261.97 38.462 260.845 38.677 259.711 38.6621Z" fill="#262526"/>
<path d="M291.038 35.8105L283.271 16H276L287.67 44H294.292L306 16H298.853L291.038 35.8105Z" fill="#262526"/>
<path d="M316 16H308V44H316V16Z" fill="#262526"/>
<path d="M321 44H342V38.2328H327.34V32.8H340.776V27.0421H327.34V21.7579H342V16H321V44Z" fill="#262526"/>
<path d="M345 16V21.795H353.307V44H359.693V21.795H368V16H345Z" fill="#262526"/>
<path d="M115.806 38.6594C113.558 38.6594 111.402 37.7471 109.812 36.1231C108.222 34.4992 107.329 32.2966 107.329 30C107.329 27.7034 108.222 25.5008 109.812 23.8769C111.402 22.2529 113.558 21.3406 115.806 21.3406C119.979 21.3406 122.399 23.4477 123.266 26.4304L128.145 21.4465C125.601 17.3958 120.93 15 115.684 15C111.789 15 108.054 16.5803 105.301 19.3934C102.547 22.2064 101 26.0218 101 30C101 33.9782 102.547 37.7936 105.301 40.6066C108.054 43.4197 111.789 45 115.684 45C122.823 45 128.87 40.5645 130 33.56H123.294C122.352 36.5427 120.007 38.6594 115.834 38.6594" fill="#262526"/>
<path d="M408.721 27.4023C407.998 27.4023 407.441 27.666 407.051 28.1934C406.66 28.7142 406.465 29.4368 406.465 30.3613C406.465 31.3184 406.641 32.054 406.992 32.5684C407.344 33.0827 407.92 33.3398 408.721 33.3398C409.079 33.3398 409.463 33.291 409.873 33.1934C410.283 33.0957 410.638 32.9785 410.938 32.8418V34.3848C410.189 34.7168 409.424 34.8828 408.643 34.8828C407.36 34.8828 406.364 34.4922 405.654 33.7109C404.951 32.9232 404.6 31.8066 404.6 30.3613C404.6 28.9681 404.958 27.8711 405.674 27.0703C406.39 26.263 407.386 25.8594 408.662 25.8594C409.561 25.8594 410.452 26.0872 411.338 26.543L410.703 27.9395C410.013 27.5814 409.352 27.4023 408.721 27.4023ZM400.977 30.3613C400.977 29.0592 401.302 27.8385 401.953 26.6992C402.604 25.5599 403.499 24.6615 404.639 24.0039C405.778 23.3464 407.005 23.0176 408.32 23.0176C409.622 23.0176 410.843 23.3431 411.982 23.9941C413.122 24.6452 414.02 25.5404 414.678 26.6797C415.335 27.819 415.664 29.0462 415.664 30.3613C415.664 31.6439 415.348 32.8483 414.717 33.9746C414.085 35.1009 413.2 36.0026 412.061 36.6797C410.921 37.3568 409.674 37.6953 408.32 37.6953C406.973 37.6953 405.729 37.36 404.59 36.6895C403.451 36.0124 402.562 35.1107 401.924 33.9844C401.292 32.8581 400.977 31.6504 400.977 30.3613ZM402.178 30.3613C402.178 31.4681 402.451 32.4967 402.998 33.4473C403.551 34.3913 404.303 35.1367 405.254 35.6836C406.204 36.2305 407.227 36.5039 408.32 36.5039C409.427 36.5039 410.456 36.2272 411.406 35.6738C412.357 35.1139 413.102 34.3652 413.643 33.4277C414.189 32.4837 414.463 31.4616 414.463 30.3613C414.463 29.2676 414.186 28.2454 413.633 27.2949C413.086 26.3379 412.334 25.5859 411.377 25.0391C410.426 24.4922 409.408 24.2188 408.32 24.2188C407.227 24.2188 406.208 24.4889 405.264 25.0293C404.326 25.5697 403.577 26.3151 403.018 27.2656C402.458 28.2161 402.178 29.248 402.178 30.3613ZM432.393 37.5H422.715V35.7617L426.396 32.0605C427.484 30.9473 428.203 30.1595 428.555 29.6973C428.913 29.2285 429.173 28.7891 429.336 28.3789C429.499 27.9688 429.58 27.5293 429.58 27.0605C429.58 26.416 429.385 25.9082 428.994 25.5371C428.61 25.166 428.076 24.9805 427.393 24.9805C426.846 24.9805 426.315 25.0814 425.801 25.2832C425.293 25.485 424.704 25.8496 424.033 26.377L422.793 24.8633C423.587 24.1927 424.359 23.7174 425.107 23.4375C425.856 23.1576 426.654 23.0176 427.5 23.0176C428.828 23.0176 429.893 23.3659 430.693 24.0625C431.494 24.7526 431.895 25.6836 431.895 26.8555C431.895 27.5 431.777 28.112 431.543 28.6914C431.315 29.2708 430.96 29.8698 430.479 30.4883C430.003 31.1003 429.209 31.9303 428.096 32.9785L425.615 35.3809V35.4785H432.393V37.5ZM443.818 30.3613C443.818 32.8418 443.418 34.6842 442.617 35.8887C441.823 37.0931 440.605 37.6953 438.965 37.6953C437.376 37.6953 436.172 37.0736 435.352 35.8301C434.531 34.5866 434.121 32.7637 434.121 30.3613C434.121 27.8418 434.518 25.9863 435.312 24.7949C436.113 23.597 437.331 22.998 438.965 22.998C440.56 22.998 441.768 23.623 442.588 24.873C443.408 26.123 443.818 27.9525 443.818 30.3613ZM436.445 30.3613C436.445 32.3079 436.644 33.6979 437.041 34.5312C437.445 35.3646 438.086 35.7812 438.965 35.7812C439.844 35.7812 440.485 35.3581 440.889 34.5117C441.299 33.6654 441.504 32.2819 441.504 30.3613C441.504 28.4473 441.299 27.0638 440.889 26.2109C440.485 25.3516 439.844 24.9219 438.965 24.9219C438.086 24.9219 437.445 25.3418 437.041 26.1816C436.644 27.0215 436.445 28.4147 436.445 30.3613ZM452.305 37.5H450.01V28.2812C450.01 27.181 450.036 26.3086 450.088 25.6641C449.938 25.8203 449.753 25.9928 449.531 26.1816C449.316 26.3704 448.587 26.9694 447.344 27.9785L446.191 26.5234L450.391 23.2227H452.305V37.5ZM458.613 37.5L464.258 25.2637H456.836V23.2422H466.709V24.8438L461.094 37.5H458.613ZM480.693 25.0195C479.352 25.0195 478.298 25.4948 477.529 26.4453C476.761 27.3958 476.377 28.7077 476.377 30.3809C476.377 32.1322 476.745 33.457 477.48 34.3555C478.223 35.2539 479.294 35.7031 480.693 35.7031C481.299 35.7031 481.885 35.6445 482.451 35.5273C483.018 35.4036 483.607 35.2474 484.219 35.0586V37.0605C483.099 37.4837 481.829 37.6953 480.41 37.6953C478.32 37.6953 476.715 37.0638 475.596 35.8008C474.476 34.5312 473.916 32.7181 473.916 30.3613C473.916 28.877 474.186 27.5781 474.727 26.4648C475.273 25.3516 476.061 24.4987 477.09 23.9062C478.118 23.3138 479.326 23.0176 480.713 23.0176C482.171 23.0176 483.519 23.3236 484.756 23.9355L483.916 25.8789C483.434 25.651 482.923 25.4525 482.383 25.2832C481.849 25.1074 481.286 25.0195 480.693 25.0195ZM492.529 26.5039C492.992 26.5039 493.372 26.5365 493.672 26.6016L493.447 28.7402C493.122 28.6621 492.783 28.623 492.432 28.623C491.514 28.623 490.768 28.9225 490.195 29.5215C489.629 30.1204 489.346 30.8984 489.346 31.8555V37.5H487.051V26.6992H488.848L489.15 28.6035H489.268C489.626 27.959 490.091 27.4479 490.664 27.0703C491.243 26.6927 491.865 26.5039 492.529 26.5039ZM494.043 26.6992H496.543L498.74 32.8223C499.072 33.6947 499.294 34.515 499.404 35.2832H499.482C499.541 34.9251 499.648 34.4922 499.805 33.9844C499.961 33.4701 500.788 31.0417 502.285 26.6992H504.766L500.146 38.9355C499.307 41.1816 497.907 42.3047 495.947 42.3047C495.439 42.3047 494.945 42.2493 494.463 42.1387V40.3223C494.808 40.4004 495.202 40.4395 495.645 40.4395C496.751 40.4395 497.529 39.7982 497.979 38.5156L498.379 37.5L494.043 26.6992ZM511.885 37.6953C510.518 37.6953 509.456 37.2038 508.701 36.2207H508.564C508.656 37.1322 508.701 37.6855 508.701 37.8809V42.3047H506.406V26.6992H508.262C508.314 26.901 508.421 27.3828 508.584 28.1445H508.701C509.417 27.0508 510.492 26.5039 511.924 26.5039C513.271 26.5039 514.32 26.9922 515.068 27.9688C515.824 28.9453 516.201 30.3158 516.201 32.0801C516.201 33.8444 515.817 35.2214 515.049 36.2109C514.287 37.2005 513.232 37.6953 511.885 37.6953ZM511.328 28.3789C510.417 28.3789 509.749 28.6458 509.326 29.1797C508.91 29.7135 508.701 30.5664 508.701 31.7383V32.0801C508.701 33.3952 508.91 34.349 509.326 34.9414C509.743 35.5273 510.423 35.8203 511.367 35.8203C512.161 35.8203 512.773 35.4948 513.203 34.8438C513.633 34.1927 513.848 33.265 513.848 32.0605C513.848 30.8496 513.633 29.9349 513.203 29.3164C512.78 28.6914 512.155 28.3789 511.328 28.3789ZM522.891 35.8398C523.451 35.8398 524.01 35.752 524.57 35.5762V37.3047C524.316 37.4154 523.988 37.5065 523.584 37.5781C523.187 37.6562 522.773 37.6953 522.344 37.6953C520.169 37.6953 519.082 36.5495 519.082 34.2578V28.4375H517.607V27.4219L519.189 26.582L519.971 24.2969H521.387V26.6992H524.463V28.4375H521.387V34.2188C521.387 34.7721 521.523 35.1823 521.797 35.4492C522.077 35.7096 522.441 35.8398 522.891 35.8398ZM536.318 32.0801C536.318 33.8444 535.866 35.2214 534.961 36.2109C534.056 37.2005 532.796 37.6953 531.182 37.6953C530.173 37.6953 529.281 37.4674 528.506 37.0117C527.731 36.556 527.135 35.9017 526.719 35.0488C526.302 34.196 526.094 33.2064 526.094 32.0801C526.094 30.3288 526.543 28.9616 527.441 27.9785C528.34 26.9954 529.606 26.5039 531.24 26.5039C532.803 26.5039 534.04 27.0085 534.951 28.0176C535.863 29.0202 536.318 30.3743 536.318 32.0801ZM528.457 32.0801C528.457 34.5736 529.378 35.8203 531.221 35.8203C533.044 35.8203 533.955 34.5736 533.955 32.0801C533.955 29.6126 533.037 28.3789 531.201 28.3789C530.238 28.3789 529.538 28.6979 529.102 29.3359C528.672 29.974 528.457 30.8887 528.457 32.0801ZM547.344 23.2227H549.766L544.766 37.5H542.305L537.324 23.2227H539.727L542.705 32.0996C542.861 32.5228 543.027 33.0697 543.203 33.7402C543.379 34.4043 543.493 34.8991 543.545 35.2246C543.63 34.7298 543.76 34.1569 543.936 33.5059C544.111 32.8548 544.255 32.373 544.365 32.0605L547.344 23.2227ZM553.701 37.5H551.406V26.6992H553.701V37.5ZM551.27 23.8379C551.27 23.4277 551.38 23.112 551.602 22.8906C551.829 22.6693 552.152 22.5586 552.568 22.5586C552.972 22.5586 553.285 22.6693 553.506 22.8906C553.734 23.112 553.848 23.4277 553.848 23.8379C553.848 24.2285 553.734 24.5378 553.506 24.7656C553.285 24.987 552.972 25.0977 552.568 25.0977C552.152 25.0977 551.829 24.987 551.602 24.7656C551.38 24.5378 551.27 24.2285 551.27 23.8379ZM561.709 37.6953C560.029 37.6953 558.714 37.207 557.764 36.2305C556.82 35.2474 556.348 33.8965 556.348 32.1777C556.348 30.4134 556.787 29.0267 557.666 28.0176C558.545 27.0085 559.753 26.5039 561.289 26.5039C562.715 26.5039 563.841 26.9368 564.668 27.8027C565.495 28.6686 565.908 29.86 565.908 31.377V32.6172H558.711C558.743 33.6654 559.027 34.4727 559.561 35.0391C560.094 35.599 560.846 35.8789 561.816 35.8789C562.454 35.8789 563.047 35.8203 563.594 35.7031C564.147 35.5794 564.74 35.3776 565.371 35.0977V36.9629C564.811 37.2298 564.245 37.4186 563.672 37.5293C563.099 37.64 562.445 37.6953 561.709 37.6953ZM561.289 28.2422C560.56 28.2422 559.974 28.4733 559.531 28.9355C559.095 29.3978 558.835 30.0716 558.75 30.957H563.652C563.639 30.0651 563.424 29.3913 563.008 28.9355C562.591 28.4733 562.018 28.2422 561.289 28.2422ZM572.539 35.8398C573.099 35.8398 573.659 35.752 574.219 35.5762V37.3047C573.965 37.4154 573.636 37.5065 573.232 37.5781C572.835 37.6562 572.422 37.6953 571.992 37.6953C569.818 37.6953 568.73 36.5495 568.73 34.2578V28.4375H567.256V27.4219L568.838 26.582L569.619 24.2969H571.035V26.6992H574.111V28.4375H571.035V34.2188C571.035 34.7721 571.172 35.1823 571.445 35.4492C571.725 35.7096 572.09 35.8398 572.539 35.8398ZM576.045 36.2793C576.045 35.804 576.169 35.4395 576.416 35.1855C576.663 34.9316 577.021 34.8047 577.49 34.8047C577.965 34.8047 578.327 34.9382 578.574 35.2051C578.822 35.4655 578.945 35.8236 578.945 36.2793C578.945 36.7415 578.818 37.1094 578.564 37.3828C578.317 37.6497 577.959 37.7832 577.49 37.7832C577.021 37.7832 576.663 37.6497 576.416 37.3828C576.169 37.1159 576.045 36.748 576.045 36.2793ZM596.191 37.5L594.766 33.5352H589.307L587.91 37.5H585.449L590.791 23.1641H593.33L598.672 37.5H596.191ZM594.15 31.5234L592.812 27.6367C592.715 27.3763 592.578 26.9661 592.402 26.4062C592.233 25.8464 592.116 25.4362 592.051 25.1758C591.875 25.9766 591.618 26.8522 591.279 27.8027L589.99 31.5234H594.15ZM602.607 37.5H600.312V22.3047H602.607V37.5ZM608.193 37.5H605.898V22.3047H608.193V37.5ZM619.258 29.8633H620.879C621.966 29.8633 622.754 29.6615 623.242 29.2578C623.73 28.8542 623.975 28.2552 623.975 27.4609C623.975 26.6536 623.711 26.0742 623.184 25.7227C622.656 25.3711 621.862 25.1953 620.801 25.1953H619.258V29.8633ZM619.258 31.7969V37.5H616.924V23.2227H620.957C622.799 23.2227 624.163 23.5677 625.049 24.2578C625.934 24.9479 626.377 25.9896 626.377 27.3828C626.377 29.1602 625.452 30.4264 623.604 31.1816L627.637 37.5H624.98L621.562 31.7969H619.258ZM631.768 37.5H629.473V26.6992H631.768V37.5ZM629.336 23.8379C629.336 23.4277 629.447 23.112 629.668 22.8906C629.896 22.6693 630.218 22.5586 630.635 22.5586C631.038 22.5586 631.351 22.6693 631.572 22.8906C631.8 23.112 631.914 23.4277 631.914 23.8379C631.914 24.2285 631.8 24.5378 631.572 24.7656C631.351 24.987 631.038 25.0977 630.635 25.0977C630.218 25.0977 629.896 24.987 629.668 24.7656C629.447 24.5378 629.336 24.2285 629.336 23.8379ZM644.18 26.6992V27.959L642.334 28.3008C642.503 28.5286 642.643 28.8086 642.754 29.1406C642.865 29.4727 642.92 29.8242 642.92 30.1953C642.92 31.3086 642.536 32.1842 641.768 32.8223C640.999 33.4603 639.941 33.7793 638.594 33.7793C638.249 33.7793 637.936 33.7533 637.656 33.7012C637.161 34.0072 636.914 34.3652 636.914 34.7754C636.914 35.0228 637.028 35.2083 637.256 35.332C637.49 35.4557 637.917 35.5176 638.535 35.5176H640.42C641.611 35.5176 642.516 35.7715 643.135 36.2793C643.753 36.7871 644.062 37.5195 644.062 38.4766C644.062 39.7005 643.558 40.6445 642.549 41.3086C641.54 41.9727 640.081 42.3047 638.174 42.3047C636.702 42.3047 635.579 42.0443 634.805 41.5234C634.03 41.0026 633.643 40.2604 633.643 39.2969C633.643 38.6328 633.851 38.0729 634.268 37.6172C634.691 37.168 635.28 36.8555 636.035 36.6797C635.729 36.5495 635.475 36.3411 635.273 36.0547C635.078 35.7617 634.98 35.4557 634.98 35.1367C634.98 34.7331 635.094 34.3913 635.322 34.1113C635.55 33.8314 635.889 33.5547 636.338 33.2812C635.778 33.0404 635.322 32.6497 634.971 32.1094C634.626 31.5625 634.453 30.9245 634.453 30.1953C634.453 29.0234 634.821 28.1152 635.557 27.4707C636.299 26.8262 637.354 26.5039 638.721 26.5039C639.027 26.5039 639.346 26.5267 639.678 26.5723C640.016 26.6113 640.27 26.6536 640.439 26.6992H644.18ZM635.693 39.1797C635.693 39.6745 635.915 40.0553 636.357 40.3223C636.807 40.5892 637.435 40.7227 638.242 40.7227C639.492 40.7227 640.423 40.5436 641.035 40.1855C641.647 39.8275 641.953 39.3522 641.953 38.7598C641.953 38.291 641.784 37.9557 641.445 37.7539C641.113 37.5586 640.492 37.4609 639.58 37.4609H637.842C637.184 37.4609 636.66 37.6139 636.27 37.9199C635.885 38.2324 635.693 38.6523 635.693 39.1797ZM636.68 30.1953C636.68 30.8724 636.852 31.3932 637.197 31.7578C637.549 32.1224 638.05 32.3047 638.701 32.3047C640.029 32.3047 640.693 31.5951 640.693 30.1758C640.693 29.4727 640.527 28.9323 640.195 28.5547C639.87 28.1706 639.372 27.9785 638.701 27.9785C638.037 27.9785 637.533 28.1673 637.188 28.5449C636.849 28.9225 636.68 29.4727 636.68 30.1953ZM655.693 37.5H653.389V30.8594C653.389 30.026 653.219 29.4043 652.881 28.9941C652.549 28.584 652.018 28.3789 651.289 28.3789C650.326 28.3789 649.616 28.6686 649.16 29.248C648.711 29.821 648.486 30.7845 648.486 32.1387V37.5H646.191V22.3047H648.486V26.1621C648.486 26.7806 648.447 27.4414 648.369 28.1445H648.516C648.828 27.6237 649.261 27.2201 649.814 26.9336C650.374 26.6471 651.025 26.5039 651.768 26.5039C654.385 26.5039 655.693 27.8223 655.693 30.459V37.5ZM662.91 35.8398C663.47 35.8398 664.03 35.752 664.59 35.5762V37.3047C664.336 37.4154 664.007 37.5065 663.604 37.5781C663.206 37.6562 662.793 37.6953 662.363 37.6953C660.189 37.6953 659.102 36.5495 659.102 34.2578V28.4375H657.627V27.4219L659.209 26.582L659.99 24.2969H661.406V26.6992H664.482V28.4375H661.406V34.2188C661.406 34.7721 661.543 35.1823 661.816 35.4492C662.096 35.7096 662.461 35.8398 662.91 35.8398ZM674.014 34.4238C674.014 35.4785 673.63 36.2891 672.861 36.8555C672.093 37.4154 670.993 37.6953 669.561 37.6953C668.122 37.6953 666.966 37.4772 666.094 37.041V35.0586C667.363 35.6445 668.545 35.9375 669.639 35.9375C671.051 35.9375 671.758 35.5111 671.758 34.6582C671.758 34.3848 671.68 34.1569 671.523 33.9746C671.367 33.7923 671.11 33.6035 670.752 33.4082C670.394 33.2129 669.896 32.9915 669.258 32.7441C668.014 32.2624 667.171 31.7806 666.729 31.2988C666.292 30.8171 666.074 30.1921 666.074 29.4238C666.074 28.4993 666.445 27.7832 667.188 27.2754C667.936 26.7611 668.952 26.5039 670.234 26.5039C671.504 26.5039 672.705 26.7611 673.838 27.2754L673.096 29.0039C671.93 28.5221 670.951 28.2812 670.156 28.2812C668.945 28.2812 668.34 28.6263 668.34 29.3164C668.34 29.6549 668.496 29.9414 668.809 30.1758C669.128 30.4102 669.818 30.7324 670.879 31.1426C671.771 31.4876 672.419 31.8034 672.822 32.0898C673.226 32.3763 673.525 32.7083 673.721 33.0859C673.916 33.457 674.014 33.903 674.014 34.4238ZM684.277 29.8633H685.898C686.986 29.8633 687.773 29.6615 688.262 29.2578C688.75 28.8542 688.994 28.2552 688.994 27.4609C688.994 26.6536 688.73 26.0742 688.203 25.7227C687.676 25.3711 686.882 25.1953 685.82 25.1953H684.277V29.8633ZM684.277 31.7969V37.5H681.943V23.2227H685.977C687.819 23.2227 689.183 23.5677 690.068 24.2578C690.954 24.9479 691.396 25.9896 691.396 27.3828C691.396 29.1602 690.472 30.4264 688.623 31.1816L692.656 37.5H690L686.582 31.7969H684.277ZM699.209 37.6953C697.529 37.6953 696.214 37.207 695.264 36.2305C694.32 35.2474 693.848 33.8965 693.848 32.1777C693.848 30.4134 694.287 29.0267 695.166 28.0176C696.045 27.0085 697.253 26.5039 698.789 26.5039C700.215 26.5039 701.341 26.9368 702.168 27.8027C702.995 28.6686 703.408 29.86 703.408 31.377V32.6172H696.211C696.243 33.6654 696.527 34.4727 697.061 35.0391C697.594 35.599 698.346 35.8789 699.316 35.8789C699.954 35.8789 700.547 35.8203 701.094 35.7031C701.647 35.5794 702.24 35.3776 702.871 35.0977V36.9629C702.311 37.2298 701.745 37.4186 701.172 37.5293C700.599 37.64 699.945 37.6953 699.209 37.6953ZM698.789 28.2422C698.06 28.2422 697.474 28.4733 697.031 28.9355C696.595 29.3978 696.335 30.0716 696.25 30.957H701.152C701.139 30.0651 700.924 29.3913 700.508 28.9355C700.091 28.4733 699.518 28.2422 698.789 28.2422ZM713.271 34.4238C713.271 35.4785 712.887 36.2891 712.119 36.8555C711.351 37.4154 710.251 37.6953 708.818 37.6953C707.38 37.6953 706.224 37.4772 705.352 37.041V35.0586C706.621 35.6445 707.803 35.9375 708.896 35.9375C710.309 35.9375 711.016 35.5111 711.016 34.6582C711.016 34.3848 710.938 34.1569 710.781 33.9746C710.625 33.7923 710.368 33.6035 710.01 33.4082C709.652 33.2129 709.154 32.9915 708.516 32.7441C707.272 32.2624 706.429 31.7806 705.986 31.2988C705.55 30.8171 705.332 30.1921 705.332 29.4238C705.332 28.4993 705.703 27.7832 706.445 27.2754C707.194 26.7611 708.21 26.5039 709.492 26.5039C710.762 26.5039 711.963 26.7611 713.096 27.2754L712.354 29.0039C711.188 28.5221 710.208 28.2812 709.414 28.2812C708.203 28.2812 707.598 28.6263 707.598 29.3164C707.598 29.6549 707.754 29.9414 708.066 30.1758C708.385 30.4102 709.076 30.7324 710.137 31.1426C711.029 31.4876 711.676 31.8034 712.08 32.0898C712.484 32.3763 712.783 32.7083 712.979 33.0859C713.174 33.457 713.271 33.903 713.271 34.4238ZM720.479 37.6953C718.799 37.6953 717.484 37.207 716.533 36.2305C715.589 35.2474 715.117 33.8965 715.117 32.1777C715.117 30.4134 715.557 29.0267 716.436 28.0176C717.314 27.0085 718.522 26.5039 720.059 26.5039C721.484 26.5039 722.611 26.9368 723.438 27.8027C724.264 28.6686 724.678 29.86 724.678 31.377V32.6172H717.48C717.513 33.6654 717.796 34.4727 718.33 35.0391C718.864 35.599 719.616 35.8789 720.586 35.8789C721.224 35.8789 721.816 35.8203 722.363 35.7031C722.917 35.5794 723.509 35.3776 724.141 35.0977V36.9629C723.581 37.2298 723.014 37.4186 722.441 37.5293C721.868 37.64 721.214 37.6953 720.479 37.6953ZM720.059 28.2422C719.329 28.2422 718.743 28.4733 718.301 28.9355C717.865 29.3978 717.604 30.0716 717.52 30.957H722.422C722.409 30.0651 722.194 29.3913 721.777 28.9355C721.361 28.4733 720.788 28.2422 720.059 28.2422ZM732.764 26.5039C733.226 26.5039 733.607 26.5365 733.906 26.6016L733.682 28.7402C733.356 28.6621 733.018 28.623 732.666 28.623C731.748 28.623 731.003 28.9225 730.43 29.5215C729.863 30.1204 729.58 30.8984 729.58 31.8555V37.5H727.285V26.6992H729.082L729.385 28.6035H729.502C729.86 27.959 730.326 27.4479 730.898 27.0703C731.478 26.6927 732.1 26.5039 732.764 26.5039ZM738.379 37.5L734.277 26.6992H736.699L738.896 32.9785C739.274 34.0332 739.502 34.8861 739.58 35.5371H739.658C739.717 35.0684 739.945 34.2155 740.342 32.9785L742.539 26.6992H744.98L740.859 37.5H738.379ZM751.338 37.6953C749.658 37.6953 748.343 37.207 747.393 36.2305C746.449 35.2474 745.977 33.8965 745.977 32.1777C745.977 30.4134 746.416 29.0267 747.295 28.0176C748.174 27.0085 749.382 26.5039 750.918 26.5039C752.344 26.5039 753.47 26.9368 754.297 27.8027C755.124 28.6686 755.537 29.86 755.537 31.377V32.6172H748.34C748.372 33.6654 748.656 34.4727 749.189 35.0391C749.723 35.599 750.475 35.8789 751.445 35.8789C752.083 35.8789 752.676 35.8203 753.223 35.7031C753.776 35.5794 754.368 35.3776 755 35.0977V36.9629C754.44 37.2298 753.874 37.4186 753.301 37.5293C752.728 37.64 752.074 37.6953 751.338 37.6953ZM750.918 28.2422C750.189 28.2422 749.603 28.4733 749.16 28.9355C748.724 29.3978 748.464 30.0716 748.379 30.957H753.281C753.268 30.0651 753.053 29.3913 752.637 28.9355C752.22 28.4733 751.647 28.2422 750.918 28.2422ZM761.787 37.6953C760.439 37.6953 759.388 37.207 758.633 36.2305C757.878 35.2539 757.5 33.8835 757.5 32.1191C757.5 30.3483 757.881 28.9714 758.643 27.9883C759.411 26.9987 760.472 26.5039 761.826 26.5039C763.245 26.5039 764.326 27.028 765.068 28.0762H765.186C765.075 27.3014 765.02 26.6895 765.02 26.2402V22.3047H767.324V37.5H765.527L765.127 36.084H765.02C764.284 37.1582 763.206 37.6953 761.787 37.6953ZM762.402 35.8398C763.346 35.8398 764.033 35.5762 764.463 35.0488C764.893 34.515 765.114 33.6523 765.127 32.4609V32.1387C765.127 30.778 764.906 29.8112 764.463 29.2383C764.02 28.6654 763.327 28.3789 762.383 28.3789C761.576 28.3789 760.954 28.7077 760.518 29.3652C760.081 30.0163 759.863 30.9473 759.863 32.1582C759.863 33.3561 760.075 34.2708 760.498 34.9023C760.921 35.5273 761.556 35.8398 762.402 35.8398Z" fill="black"/>
<defs>
<linearGradient id="paint0_linear_48_845" x1="43.6325" y1="58.3819" x2="43.6325" y2="-1.6101" gradientUnits="userSpaceOnUse">
<stop stop-color="#254393"/>
<stop offset="1" stop-color="#2E9BD6"/>
</linearGradient>
</defs>
</svg>
