<svg width="368" height="60" viewBox="0 0 368 60" fill="none" xmlns="http://www.w3.org/2000/svg">
<path d="M90 29.992L60.2249 0H29.7751L0 30L29.7751 60H60.2963L90 29.992ZM32.474 53.4355L9.2556 30L32.5137 6.5645H57.5657L68.2739 17.3507L60.6853 25.0027L53.1205 17.3827H36.9271L24.3932 30L47.6592 53.4355H32.474ZM57.5895 53.4355L34.3235 30L39.9356 24.355H50.0723L55.6844 30L52.5966 33.1103L57.5578 38.1077L65.6147 30L73.2113 22.3561L80.8 30L57.5895 53.4355Z" fill="#F0F0F0"/>
<path d="M157.804 25.5655C157.804 20.0398 154.151 16 146.927 16H134V44H140.422V35.0846H144.038L150.823 44H158L150.777 34.6017C152.822 34.1481 154.643 32.9967 155.926 31.3467C157.21 29.6967 157.874 27.6518 157.804 25.5655ZM146.331 29.401H140.384V21.6836H146.331C149.5 21.6836 151.14 23.0859 151.14 25.5283C151.14 27.9708 149.537 29.401 146.331 29.401Z" fill="#F0F0F0"/>
<path d="M174.543 27.8779L167.475 16H160L171.27 33.998V44H177.768V33.8773L189 16H181.61L174.543 27.8779Z" fill="#F0F0F0"/>
<path d="M204.959 16H192V44H198.541V35.326H204.959C212.278 35.2796 216 31.2862 216 25.6398C216 19.9934 212.278 16 204.959 16ZM204.389 29.5589H198.541V21.7672H204.389C207.541 21.7672 209.259 23.1231 209.259 25.6398C209.259 28.1566 207.541 29.5589 204.389 29.5589Z" fill="#F0F0F0"/>
<path d="M218 21.795H226.674V44H233.335V21.795H242V16H218V21.795Z" fill="#F0F0F0"/>
<path d="M259.711 15.0026C256.758 15.0594 253.886 15.9873 251.458 17.6697C249.029 19.3521 247.152 21.7142 246.061 24.4596C244.969 27.205 244.713 30.2115 245.324 33.102C245.935 35.9924 247.386 38.6381 249.495 40.7072C251.604 42.7762 254.277 44.1764 257.178 44.7322C260.08 45.288 263.081 44.9745 265.805 43.8312C268.529 42.6879 270.855 40.7656 272.491 38.3055C274.127 35.8454 274.999 32.957 275 30.0027C274.999 28.0087 274.601 26.0349 273.829 24.1965C273.056 22.3581 271.925 20.6921 270.502 19.2956C269.079 17.8991 267.392 16.8002 265.539 16.0631C263.686 15.3261 261.705 14.9655 259.711 15.0026ZM259.711 38.6621C257.992 38.6946 256.302 38.2145 254.857 37.2829C253.411 36.3514 252.276 35.0106 251.595 33.4314C250.915 31.8522 250.72 30.1062 251.035 28.4158C251.351 26.7254 252.162 25.1672 253.367 23.9397C254.571 22.7123 256.113 21.8711 257.797 21.5235C259.481 21.1759 261.231 21.3376 262.823 21.9879C264.415 22.6383 265.777 23.7478 266.736 25.1752C267.695 26.6026 268.207 28.2831 268.207 30.0027C268.244 31.1359 268.05 32.2648 267.638 33.3211C267.226 34.3774 266.604 35.3393 265.81 36.1486C265.016 36.958 264.067 37.598 263.018 38.03C261.97 38.462 260.845 38.677 259.711 38.6621Z" fill="#F0F0F0"/>
<path d="M291.038 35.8105L283.271 16H276L287.67 44H294.292L306 16H298.853L291.038 35.8105Z" fill="#F0F0F0"/>
<path d="M316 16H308V44H316V16Z" fill="#F0F0F0"/>
<path d="M321 44H342V38.2328H327.34V32.8H340.776V27.0421H327.34V21.7579H342V16H321V44Z" fill="#F0F0F0"/>
<path d="M345 16V21.795H353.307V44H359.693V21.795H368V16H345Z" fill="#F0F0F0"/>
<path d="M115.806 38.6594C113.558 38.6594 111.402 37.7471 109.812 36.1231C108.222 34.4992 107.329 32.2966 107.329 30C107.329 27.7034 108.222 25.5008 109.812 23.8769C111.402 22.2529 113.558 21.3406 115.806 21.3406C119.979 21.3406 122.399 23.4477 123.266 26.4304L128.145 21.4465C125.601 17.3958 120.93 15 115.684 15C111.789 15 108.054 16.5803 105.301 19.3934C102.547 22.2064 101 26.0218 101 30C101 33.9782 102.547 37.7936 105.301 40.6066C108.054 43.4197 111.789 45 115.684 45C122.823 45 128.87 40.5645 130 33.56H123.294C122.352 36.5427 120.007 38.6594 115.834 38.6594" fill="#F0F0F0"/>
</svg>
