<svg width="912" height="371" viewBox="0 0 912 371" fill="none" xmlns="http://www.w3.org/2000/svg">
<g filter="url(#filter0_d_38_290)">
<rect x="28" y="24" width="855.134" height="315" rx="8" fill="white" shape-rendering="crispEdges"/>
<path d="M58.3398 61H52.5391V59.9629L54.7598 57.7129C55.1895 57.2754 55.543 56.8984 55.8203 56.582C56.0977 56.2617 56.3027 55.959 56.4355 55.6738C56.5723 55.3887 56.6406 55.0781 56.6406 54.7422C56.6406 54.3281 56.5215 54.0156 56.2832 53.8047C56.0449 53.5898 55.7305 53.4824 55.3398 53.4824C54.9688 53.4824 54.625 53.5566 54.3086 53.7051C53.9961 53.8496 53.6719 54.0566 53.3359 54.3262L52.5801 53.418C52.8184 53.2148 53.0723 53.0293 53.3418 52.8613C53.6152 52.6934 53.9199 52.5605 54.2559 52.4629C54.5918 52.3613 54.9746 52.3105 55.4043 52.3105C55.9473 52.3105 56.416 52.4082 56.8105 52.6035C57.2051 52.7949 57.5078 53.0625 57.7188 53.4062C57.9336 53.75 58.041 54.1504 58.041 54.6074C58.041 55.0684 57.9492 55.4941 57.7656 55.8848C57.582 56.2754 57.3203 56.6621 56.9805 57.0449C56.6406 57.4238 56.2363 57.8359 55.7676 58.2812L54.2852 59.7285V59.793H58.3398V61ZM59.418 57.3496C59.418 56.8457 59.4531 56.3496 59.5234 55.8613C59.5977 55.373 59.7227 54.916 59.8984 54.4902C60.0742 54.0645 60.3164 53.6895 60.625 53.3652C60.9375 53.041 61.3301 52.7871 61.8027 52.6035C62.2754 52.416 62.8438 52.3223 63.5078 52.3223C63.6797 52.3223 63.873 52.3301 64.0879 52.3457C64.3027 52.3613 64.4805 52.3867 64.6211 52.4219V53.5645C64.4688 53.5215 64.3008 53.4883 64.1172 53.4648C63.9375 53.4414 63.7578 53.4297 63.5781 53.4297C62.8594 53.4297 62.2988 53.5664 61.8965 53.8398C61.4941 54.1094 61.207 54.4805 61.0352 54.9531C60.8633 55.4219 60.7637 55.959 60.7363 56.5645H60.8066C60.9238 56.3691 61.0703 56.1953 61.2461 56.043C61.4219 55.8906 61.6367 55.7695 61.8906 55.6797C62.1445 55.5859 62.4395 55.5391 62.7754 55.5391C63.2754 55.5391 63.7109 55.6445 64.082 55.8555C64.4531 56.0625 64.7383 56.3633 64.9375 56.7578C65.1406 57.1523 65.2422 57.6309 65.2422 58.1934C65.2422 58.7988 65.127 59.3203 64.8965 59.7578C64.6699 60.1953 64.3457 60.5312 63.9238 60.7656C63.5059 61 63.0078 61.1172 62.4297 61.1172C62.0039 61.1172 61.6074 61.0391 61.2402 60.8828C60.877 60.7266 60.5586 60.4922 60.2852 60.1797C60.0117 59.8672 59.7988 59.4766 59.6465 59.0078C59.4941 58.5352 59.418 57.9824 59.418 57.3496ZM62.4062 59.9805C62.8516 59.9805 63.209 59.8359 63.4785 59.5469C63.752 59.2539 63.8887 58.8066 63.8887 58.2051C63.8887 57.7168 63.7676 57.3301 63.5254 57.0449C63.2871 56.7598 62.9277 56.6172 62.4473 56.6172C62.1191 56.6172 61.832 56.6875 61.5859 56.8281C61.3398 56.9688 61.1484 57.1465 61.0117 57.3613C60.8789 57.5762 60.8125 57.7949 60.8125 58.0176C60.8125 58.2441 60.8457 58.4727 60.9121 58.7031C60.9785 58.9336 61.0781 59.1465 61.2109 59.3418C61.3438 59.5332 61.5098 59.6875 61.709 59.8047C61.9082 59.9219 62.1406 59.9805 62.4062 59.9805ZM66.8594 52.4336H69.4082C70.5137 52.4336 71.3477 52.5938 71.9102 52.9141C72.4727 53.2344 72.7539 53.7871 72.7539 54.5723C72.7539 54.9004 72.6953 55.1973 72.5781 55.4629C72.4648 55.7246 72.2988 55.9414 72.0801 56.1133C71.8613 56.2812 71.5918 56.3945 71.2715 56.4531V56.5117C71.6035 56.5703 71.8984 56.6738 72.1562 56.8223C72.418 56.9707 72.623 57.1836 72.7715 57.4609C72.9238 57.7383 73 58.0977 73 58.5391C73 59.0625 72.875 59.5078 72.625 59.875C72.3789 60.2422 72.0254 60.5215 71.5645 60.7129C71.1074 60.9043 70.5645 61 69.9355 61H66.8594V52.4336ZM68.2656 55.9668H69.6133C70.25 55.9668 70.6914 55.8633 70.9375 55.6562C71.1836 55.4492 71.3066 55.1465 71.3066 54.748C71.3066 54.3418 71.1602 54.0488 70.8672 53.8691C70.5781 53.6895 70.1172 53.5996 69.4844 53.5996H68.2656V55.9668ZM68.2656 57.1035V59.8223H69.748C70.4043 59.8223 70.8652 59.6953 71.1309 59.4414C71.3965 59.1875 71.5293 58.8438 71.5293 58.4102C71.5293 58.1445 71.4688 57.9141 71.3477 57.7188C71.2305 57.5234 71.0371 57.373 70.7676 57.2676C70.498 57.1582 70.1348 57.1035 69.6777 57.1035H68.2656Z" fill="black"/>
<path d="M58.3398 98H52.5391V96.9629L54.7598 94.7129C55.1895 94.2754 55.543 93.8984 55.8203 93.582C56.0977 93.2617 56.3027 92.959 56.4355 92.6738C56.5723 92.3887 56.6406 92.0781 56.6406 91.7422C56.6406 91.3281 56.5215 91.0156 56.2832 90.8047C56.0449 90.5898 55.7305 90.4824 55.3398 90.4824C54.9688 90.4824 54.625 90.5566 54.3086 90.7051C53.9961 90.8496 53.6719 91.0566 53.3359 91.3262L52.5801 90.418C52.8184 90.2148 53.0723 90.0293 53.3418 89.8613C53.6152 89.6934 53.9199 89.5605 54.2559 89.4629C54.5918 89.3613 54.9746 89.3105 55.4043 89.3105C55.9473 89.3105 56.416 89.4082 56.8105 89.6035C57.2051 89.7949 57.5078 90.0625 57.7188 90.4062C57.9336 90.75 58.041 91.1504 58.041 91.6074C58.041 92.0684 57.9492 92.4941 57.7656 92.8848C57.582 93.2754 57.3203 93.6621 56.9805 94.0449C56.6406 94.4238 56.2363 94.8359 55.7676 95.2812L54.2852 96.7285V96.793H58.3398V98ZM65.5176 96.1191H64.3574V98H62.998V96.1191H59.1016V95.0762L63.0156 89.4102H64.3574V94.9766H65.5176V96.1191ZM62.998 94.9766V92.8496C62.998 92.6738 63 92.4961 63.0039 92.3164C63.0117 92.1328 63.0195 91.957 63.0273 91.7891C63.0352 91.6211 63.043 91.4668 63.0508 91.3262C63.0586 91.1816 63.0645 91.0625 63.0684 90.9688H63.0215C62.9473 91.125 62.8652 91.2852 62.7754 91.4492C62.6855 91.6094 62.5898 91.7656 62.4883 91.918L60.3789 94.9766H62.998ZM66.8594 89.4336H69.4082C70.5137 89.4336 71.3477 89.5938 71.9102 89.9141C72.4727 90.2344 72.7539 90.7871 72.7539 91.5723C72.7539 91.9004 72.6953 92.1973 72.5781 92.4629C72.4648 92.7246 72.2988 92.9414 72.0801 93.1133C71.8613 93.2812 71.5918 93.3945 71.2715 93.4531V93.5117C71.6035 93.5703 71.8984 93.6738 72.1562 93.8223C72.418 93.9707 72.623 94.1836 72.7715 94.4609C72.9238 94.7383 73 95.0977 73 95.5391C73 96.0625 72.875 96.5078 72.625 96.875C72.3789 97.2422 72.0254 97.5215 71.5645 97.7129C71.1074 97.9043 70.5645 98 69.9355 98H66.8594V89.4336ZM68.2656 92.9668H69.6133C70.25 92.9668 70.6914 92.8633 70.9375 92.6562C71.1836 92.4492 71.3066 92.1465 71.3066 91.748C71.3066 91.3418 71.1602 91.0488 70.8672 90.8691C70.5781 90.6895 70.1172 90.5996 69.4844 90.5996H68.2656V92.9668ZM68.2656 94.1035V96.8223H69.748C70.4043 96.8223 70.8652 96.6953 71.1309 96.4414C71.3965 96.1875 71.5293 95.8438 71.5293 95.4102C71.5293 95.1445 71.4688 94.9141 71.3477 94.7188C71.2305 94.5234 71.0371 94.373 70.7676 94.2676C70.498 94.1582 70.1348 94.1035 69.6777 94.1035H68.2656Z" fill="black"/>
<path d="M58.3398 135H52.5391V133.963L54.7598 131.713C55.1895 131.275 55.543 130.898 55.8203 130.582C56.0977 130.262 56.3027 129.959 56.4355 129.674C56.5723 129.389 56.6406 129.078 56.6406 128.742C56.6406 128.328 56.5215 128.016 56.2832 127.805C56.0449 127.59 55.7305 127.482 55.3398 127.482C54.9688 127.482 54.625 127.557 54.3086 127.705C53.9961 127.85 53.6719 128.057 53.3359 128.326L52.5801 127.418C52.8184 127.215 53.0723 127.029 53.3418 126.861C53.6152 126.693 53.9199 126.561 54.2559 126.463C54.5918 126.361 54.9746 126.311 55.4043 126.311C55.9473 126.311 56.416 126.408 56.8105 126.604C57.2051 126.795 57.5078 127.062 57.7188 127.406C57.9336 127.75 58.041 128.15 58.041 128.607C58.041 129.068 57.9492 129.494 57.7656 129.885C57.582 130.275 57.3203 130.662 56.9805 131.045C56.6406 131.424 56.2363 131.836 55.7676 132.281L54.2852 133.729V133.793H58.3398V135ZM65.207 135H59.4062V133.963L61.627 131.713C62.0566 131.275 62.4102 130.898 62.6875 130.582C62.9648 130.262 63.1699 129.959 63.3027 129.674C63.4395 129.389 63.5078 129.078 63.5078 128.742C63.5078 128.328 63.3887 128.016 63.1504 127.805C62.9121 127.59 62.5977 127.482 62.207 127.482C61.8359 127.482 61.4922 127.557 61.1758 127.705C60.8633 127.85 60.5391 128.057 60.2031 128.326L59.4473 127.418C59.6855 127.215 59.9395 127.029 60.209 126.861C60.4824 126.693 60.7871 126.561 61.123 126.463C61.459 126.361 61.8418 126.311 62.2715 126.311C62.8145 126.311 63.2832 126.408 63.6777 126.604C64.0723 126.795 64.375 127.062 64.5859 127.406C64.8008 127.75 64.9082 128.15 64.9082 128.607C64.9082 129.068 64.8164 129.494 64.6328 129.885C64.4492 130.275 64.1875 130.662 63.8477 131.045C63.5078 131.424 63.1035 131.836 62.6348 132.281L61.1523 133.729V133.793H65.207V135ZM66.8594 126.434H69.4082C70.5137 126.434 71.3477 126.594 71.9102 126.914C72.4727 127.234 72.7539 127.787 72.7539 128.572C72.7539 128.9 72.6953 129.197 72.5781 129.463C72.4648 129.725 72.2988 129.941 72.0801 130.113C71.8613 130.281 71.5918 130.395 71.2715 130.453V130.512C71.6035 130.57 71.8984 130.674 72.1562 130.822C72.418 130.971 72.623 131.184 72.7715 131.461C72.9238 131.738 73 132.098 73 132.539C73 133.062 72.875 133.508 72.625 133.875C72.3789 134.242 72.0254 134.521 71.5645 134.713C71.1074 134.904 70.5645 135 69.9355 135H66.8594V126.434ZM68.2656 129.967H69.6133C70.25 129.967 70.6914 129.863 70.9375 129.656C71.1836 129.449 71.3066 129.146 71.3066 128.748C71.3066 128.342 71.1602 128.049 70.8672 127.869C70.5781 127.689 70.1172 127.6 69.4844 127.6H68.2656V129.967ZM68.2656 131.104V133.822H69.748C70.4043 133.822 70.8652 133.695 71.1309 133.441C71.3965 133.188 71.5293 132.844 71.5293 132.41C71.5293 132.145 71.4688 131.914 71.3477 131.719C71.2305 131.523 71.0371 131.373 70.7676 131.268C70.498 131.158 70.1348 131.104 69.6777 131.104H68.2656Z" fill="black"/>
<path d="M58.3398 172H52.5391V170.963L54.7598 168.713C55.1895 168.275 55.543 167.898 55.8203 167.582C56.0977 167.262 56.3027 166.959 56.4355 166.674C56.5723 166.389 56.6406 166.078 56.6406 165.742C56.6406 165.328 56.5215 165.016 56.2832 164.805C56.0449 164.59 55.7305 164.482 55.3398 164.482C54.9688 164.482 54.625 164.557 54.3086 164.705C53.9961 164.85 53.6719 165.057 53.3359 165.326L52.5801 164.418C52.8184 164.215 53.0723 164.029 53.3418 163.861C53.6152 163.693 53.9199 163.561 54.2559 163.463C54.5918 163.361 54.9746 163.311 55.4043 163.311C55.9473 163.311 56.416 163.408 56.8105 163.604C57.2051 163.795 57.5078 164.062 57.7188 164.406C57.9336 164.75 58.041 165.15 58.041 165.607C58.041 166.068 57.9492 166.494 57.7656 166.885C57.582 167.275 57.3203 167.662 56.9805 168.045C56.6406 168.424 56.2363 168.836 55.7676 169.281L54.2852 170.729V170.793H58.3398V172ZM65.207 167.711C65.207 168.402 65.1523 169.021 65.043 169.568C64.9375 170.111 64.7695 170.572 64.5391 170.951C64.3086 171.33 64.0078 171.619 63.6367 171.818C63.2656 172.018 62.8164 172.117 62.2891 172.117C61.6289 172.117 61.084 171.943 60.6543 171.596C60.2246 171.244 59.9062 170.74 59.6992 170.084C59.4922 169.424 59.3887 168.633 59.3887 167.711C59.3887 166.789 59.4824 166 59.6699 165.344C59.8613 164.684 60.1699 164.178 60.5957 163.826C61.0215 163.475 61.5859 163.299 62.2891 163.299C62.9531 163.299 63.5 163.475 63.9297 163.826C64.3633 164.174 64.6836 164.678 64.8906 165.338C65.1016 165.994 65.207 166.785 65.207 167.711ZM60.7773 167.711C60.7773 168.434 60.8242 169.037 60.918 169.521C61.0156 170.006 61.1758 170.369 61.3984 170.611C61.6211 170.85 61.918 170.969 62.2891 170.969C62.6602 170.969 62.957 170.85 63.1797 170.611C63.4023 170.373 63.5625 170.012 63.6602 169.527C63.7617 169.043 63.8125 168.438 63.8125 167.711C63.8125 166.992 63.7637 166.391 63.666 165.906C63.5684 165.422 63.4082 165.059 63.1855 164.816C62.9629 164.57 62.6641 164.447 62.2891 164.447C61.9141 164.447 61.6152 164.57 61.3926 164.816C61.1738 165.059 61.0156 165.422 60.918 165.906C60.8242 166.391 60.7773 166.992 60.7773 167.711ZM66.8594 163.434H69.4082C70.5137 163.434 71.3477 163.594 71.9102 163.914C72.4727 164.234 72.7539 164.787 72.7539 165.572C72.7539 165.9 72.6953 166.197 72.5781 166.463C72.4648 166.725 72.2988 166.941 72.0801 167.113C71.8613 167.281 71.5918 167.395 71.2715 167.453V167.512C71.6035 167.57 71.8984 167.674 72.1562 167.822C72.418 167.971 72.623 168.184 72.7715 168.461C72.9238 168.738 73 169.098 73 169.539C73 170.062 72.875 170.508 72.625 170.875C72.3789 171.242 72.0254 171.521 71.5645 171.713C71.1074 171.904 70.5645 172 69.9355 172H66.8594V163.434ZM68.2656 166.967H69.6133C70.25 166.967 70.6914 166.863 70.9375 166.656C71.1836 166.449 71.3066 166.146 71.3066 165.748C71.3066 165.342 71.1602 165.049 70.8672 164.869C70.5781 164.689 70.1172 164.6 69.4844 164.6H68.2656V166.967ZM68.2656 168.104V170.822H69.748C70.4043 170.822 70.8652 170.695 71.1309 170.441C71.3965 170.188 71.5293 169.844 71.5293 169.41C71.5293 169.145 71.4688 168.914 71.3477 168.719C71.2305 168.523 71.0371 168.373 70.7676 168.268C70.498 168.158 70.1348 168.104 69.6777 168.104H68.2656Z" fill="black"/>
<path d="M56.5879 209H55.2051V203.486C55.2051 203.303 55.207 203.119 55.2109 202.936C55.2148 202.752 55.2188 202.572 55.2227 202.396C55.2305 202.221 55.2402 202.053 55.252 201.893C55.1699 201.982 55.0684 202.08 54.9473 202.186C54.8301 202.291 54.7051 202.4 54.5723 202.514L53.5879 203.299L52.8965 202.426L55.4395 200.434H56.5879V209ZM62.2949 200.316C62.791 200.316 63.2383 200.395 63.6367 200.551C64.0352 200.703 64.3516 200.932 64.5859 201.236C64.8203 201.541 64.9375 201.918 64.9375 202.367C64.9375 202.715 64.8652 203.018 64.7207 203.275C64.5801 203.533 64.3887 203.76 64.1465 203.955C63.9043 204.146 63.6328 204.316 63.332 204.465C63.668 204.629 63.9766 204.818 64.2578 205.033C64.543 205.244 64.7715 205.492 64.9434 205.777C65.1191 206.062 65.207 206.396 65.207 206.779C65.207 207.26 65.084 207.676 64.8379 208.027C64.5957 208.375 64.2578 208.645 63.8242 208.836C63.3906 209.023 62.8848 209.117 62.3066 209.117C61.6855 209.117 61.1562 209.025 60.7188 208.842C60.2812 208.658 59.9492 208.396 59.7227 208.057C59.4961 207.713 59.3828 207.303 59.3828 206.826C59.3828 206.432 59.4609 206.09 59.6172 205.801C59.7734 205.512 59.9824 205.262 60.2441 205.051C60.5098 204.84 60.8008 204.662 61.1172 204.518C60.8477 204.357 60.6016 204.178 60.3789 203.979C60.1562 203.775 59.9785 203.543 59.8457 203.281C59.7168 203.016 59.6523 202.709 59.6523 202.361C59.6523 201.916 59.7715 201.543 60.0098 201.242C60.248 200.938 60.5664 200.707 60.9648 200.551C61.3672 200.395 61.8105 200.316 62.2949 200.316ZM60.6953 206.773C60.6953 207.148 60.8281 207.457 61.0938 207.699C61.3594 207.941 61.7559 208.062 62.2832 208.062C62.8066 208.062 63.2051 207.943 63.4785 207.705C63.752 207.467 63.8887 207.152 63.8887 206.762C63.8887 206.512 63.8184 206.291 63.6777 206.1C63.541 205.908 63.3555 205.738 63.1211 205.59C62.8906 205.438 62.6348 205.297 62.3535 205.168L62.166 205.092C61.8613 205.221 61.5996 205.367 61.3809 205.531C61.1621 205.691 60.9922 205.873 60.8711 206.076C60.7539 206.279 60.6953 206.512 60.6953 206.773ZM62.2832 201.377C61.9043 201.377 61.5918 201.471 61.3457 201.658C61.1035 201.842 60.9824 202.107 60.9824 202.455C60.9824 202.701 61.041 202.912 61.1582 203.088C61.2793 203.264 61.4414 203.416 61.6445 203.545C61.8477 203.67 62.0723 203.787 62.3184 203.896C62.5566 203.791 62.7715 203.676 62.9629 203.551C63.1582 203.422 63.3125 203.27 63.4258 203.094C63.543 202.914 63.6016 202.699 63.6016 202.449C63.6016 202.105 63.4785 201.842 63.2324 201.658C62.9902 201.471 62.6738 201.377 62.2832 201.377ZM66.8594 200.434H69.4082C70.5137 200.434 71.3477 200.594 71.9102 200.914C72.4727 201.234 72.7539 201.787 72.7539 202.572C72.7539 202.9 72.6953 203.197 72.5781 203.463C72.4648 203.725 72.2988 203.941 72.0801 204.113C71.8613 204.281 71.5918 204.395 71.2715 204.453V204.512C71.6035 204.57 71.8984 204.674 72.1562 204.822C72.418 204.971 72.623 205.184 72.7715 205.461C72.9238 205.738 73 206.098 73 206.539C73 207.062 72.875 207.508 72.625 207.875C72.3789 208.242 72.0254 208.521 71.5645 208.713C71.1074 208.904 70.5645 209 69.9355 209H66.8594V200.434ZM68.2656 203.967H69.6133C70.25 203.967 70.6914 203.863 70.9375 203.656C71.1836 203.449 71.3066 203.146 71.3066 202.748C71.3066 202.342 71.1602 202.049 70.8672 201.869C70.5781 201.689 70.1172 201.6 69.4844 201.6H68.2656V203.967ZM68.2656 205.104V207.822H69.748C70.4043 207.822 70.8652 207.695 71.1309 207.441C71.3965 207.188 71.5293 206.844 71.5293 206.41C71.5293 206.145 71.4688 205.914 71.3477 205.719C71.2305 205.523 71.0371 205.373 70.7676 205.268C70.498 205.158 70.1348 205.104 69.6777 205.104H68.2656Z" fill="black"/>
<path d="M56.5879 246H55.2051V240.486C55.2051 240.303 55.207 240.119 55.2109 239.936C55.2148 239.752 55.2188 239.572 55.2227 239.396C55.2305 239.221 55.2402 239.053 55.252 238.893C55.1699 238.982 55.0684 239.08 54.9473 239.186C54.8301 239.291 54.7051 239.4 54.5723 239.514L53.5879 240.299L52.8965 239.426L55.4395 237.434H56.5879V246ZM59.418 242.35C59.418 241.846 59.4531 241.35 59.5234 240.861C59.5977 240.373 59.7227 239.916 59.8984 239.49C60.0742 239.064 60.3164 238.689 60.625 238.365C60.9375 238.041 61.3301 237.787 61.8027 237.604C62.2754 237.416 62.8438 237.322 63.5078 237.322C63.6797 237.322 63.873 237.33 64.0879 237.346C64.3027 237.361 64.4805 237.387 64.6211 237.422V238.564C64.4688 238.521 64.3008 238.488 64.1172 238.465C63.9375 238.441 63.7578 238.43 63.5781 238.43C62.8594 238.43 62.2988 238.566 61.8965 238.84C61.4941 239.109 61.207 239.48 61.0352 239.953C60.8633 240.422 60.7637 240.959 60.7363 241.564H60.8066C60.9238 241.369 61.0703 241.195 61.2461 241.043C61.4219 240.891 61.6367 240.77 61.8906 240.68C62.1445 240.586 62.4395 240.539 62.7754 240.539C63.2754 240.539 63.7109 240.645 64.082 240.855C64.4531 241.062 64.7383 241.363 64.9375 241.758C65.1406 242.152 65.2422 242.631 65.2422 243.193C65.2422 243.799 65.127 244.32 64.8965 244.758C64.6699 245.195 64.3457 245.531 63.9238 245.766C63.5059 246 63.0078 246.117 62.4297 246.117C62.0039 246.117 61.6074 246.039 61.2402 245.883C60.877 245.727 60.5586 245.492 60.2852 245.18C60.0117 244.867 59.7988 244.477 59.6465 244.008C59.4941 243.535 59.418 242.982 59.418 242.35ZM62.4062 244.98C62.8516 244.98 63.209 244.836 63.4785 244.547C63.752 244.254 63.8887 243.807 63.8887 243.205C63.8887 242.717 63.7676 242.33 63.5254 242.045C63.2871 241.76 62.9277 241.617 62.4473 241.617C62.1191 241.617 61.832 241.688 61.5859 241.828C61.3398 241.969 61.1484 242.146 61.0117 242.361C60.8789 242.576 60.8125 242.795 60.8125 243.018C60.8125 243.244 60.8457 243.473 60.9121 243.703C60.9785 243.934 61.0781 244.146 61.2109 244.342C61.3438 244.533 61.5098 244.688 61.709 244.805C61.9082 244.922 62.1406 244.98 62.4062 244.98ZM66.8594 237.434H69.4082C70.5137 237.434 71.3477 237.594 71.9102 237.914C72.4727 238.234 72.7539 238.787 72.7539 239.572C72.7539 239.9 72.6953 240.197 72.5781 240.463C72.4648 240.725 72.2988 240.941 72.0801 241.113C71.8613 241.281 71.5918 241.395 71.2715 241.453V241.512C71.6035 241.57 71.8984 241.674 72.1562 241.822C72.418 241.971 72.623 242.184 72.7715 242.461C72.9238 242.738 73 243.098 73 243.539C73 244.062 72.875 244.508 72.625 244.875C72.3789 245.242 72.0254 245.521 71.5645 245.713C71.1074 245.904 70.5645 246 69.9355 246H66.8594V237.434ZM68.2656 240.967H69.6133C70.25 240.967 70.6914 240.863 70.9375 240.656C71.1836 240.449 71.3066 240.146 71.3066 239.748C71.3066 239.342 71.1602 239.049 70.8672 238.869C70.5781 238.689 70.1172 238.6 69.4844 238.6H68.2656V240.967ZM68.2656 242.104V244.822H69.748C70.4043 244.822 70.8652 244.695 71.1309 244.441C71.3965 244.188 71.5293 243.844 71.5293 243.41C71.5293 243.145 71.4688 242.914 71.3477 242.719C71.2305 242.523 71.0371 242.373 70.7676 242.268C70.498 242.158 70.1348 242.104 69.6777 242.104H68.2656Z" fill="black"/>
<path d="M56.5879 283H55.2051V277.486C55.2051 277.303 55.207 277.119 55.2109 276.936C55.2148 276.752 55.2188 276.572 55.2227 276.396C55.2305 276.221 55.2402 276.053 55.252 275.893C55.1699 275.982 55.0684 276.08 54.9473 276.186C54.8301 276.291 54.7051 276.4 54.5723 276.514L53.5879 277.299L52.8965 276.426L55.4395 274.434H56.5879V283ZM65.5176 281.119H64.3574V283H62.998V281.119H59.1016V280.076L63.0156 274.41H64.3574V279.977H65.5176V281.119ZM62.998 279.977V277.85C62.998 277.674 63 277.496 63.0039 277.316C63.0117 277.133 63.0195 276.957 63.0273 276.789C63.0352 276.621 63.043 276.467 63.0508 276.326C63.0586 276.182 63.0645 276.062 63.0684 275.969H63.0215C62.9473 276.125 62.8652 276.285 62.7754 276.449C62.6855 276.609 62.5898 276.766 62.4883 276.918L60.3789 279.977H62.998ZM66.8594 274.434H69.4082C70.5137 274.434 71.3477 274.594 71.9102 274.914C72.4727 275.234 72.7539 275.787 72.7539 276.572C72.7539 276.9 72.6953 277.197 72.5781 277.463C72.4648 277.725 72.2988 277.941 72.0801 278.113C71.8613 278.281 71.5918 278.395 71.2715 278.453V278.512C71.6035 278.57 71.8984 278.674 72.1562 278.822C72.418 278.971 72.623 279.184 72.7715 279.461C72.9238 279.738 73 280.098 73 280.539C73 281.062 72.875 281.508 72.625 281.875C72.3789 282.242 72.0254 282.521 71.5645 282.713C71.1074 282.904 70.5645 283 69.9355 283H66.8594V274.434ZM68.2656 277.967H69.6133C70.25 277.967 70.6914 277.863 70.9375 277.656C71.1836 277.449 71.3066 277.146 71.3066 276.748C71.3066 276.342 71.1602 276.049 70.8672 275.869C70.5781 275.689 70.1172 275.6 69.4844 275.6H68.2656V277.967ZM68.2656 279.104V281.822H69.748C70.4043 281.822 70.8652 281.695 71.1309 281.441C71.3965 281.188 71.5293 280.844 71.5293 280.41C71.5293 280.145 71.4688 279.914 71.3477 279.719C71.2305 279.523 71.0371 279.373 70.7676 279.268C70.498 279.158 70.1348 279.104 69.6777 279.104H68.2656Z" fill="black"/>
<path d="M82 192C87.1667 194.5 99.3 198 106.5 192C115.5 184.5 109 153.5 122.5 155C136 156.5 128 162.5 133.5 165.5C139 168.5 135 154 141.5 153C148 152 185 163.5 201 160.5C217 157.5 237.5 162.5 245 165.5C252.5 168.5 258.5 161.5 263.5 163.5C268.5 165.5 264.5 172.5 271 173.5C277.5 174.5 273 193.5 280 194.5C287 195.5 292 176.5 298.5 178.5C305 180.5 319 177.5 320.5 173.5C322 169.5 324 158 352.5 157.5C381 157 376.5 153 381 153C385.5 153 401.5 151.5 403.5 160.5C405.5 169.5 415 154.5 426.5 157.5C438 160.5 467 168 480 160.5C493 153 503 160 508 185C513 210 547 209.5 569 204C591 198.5 653 225 676 237.5C699 250 725.5 232 748 237.5C770.5 243 790.5 243.5 828 255.5C858 265.1 860.833 259.5 858.5 255.5" stroke="#BC9300" stroke-width="2" stroke-linecap="round"/>
<path d="M82 192C87.1667 194.5 99.3 198 106.5 192C115.5 184.5 109 153.5 122.5 155C136 156.5 128 162.5 133.5 165.5C139 168.5 135 154 141.5 153C148 152 185 163.5 201 160.5C217 157.5 237.5 162.5 245 165.5C252.5 168.5 258.5 161.5 263.5 163.5C268.5 165.5 264.5 172.5 271 173.5C277.5 174.5 273 193.5 280 194.5C287 195.5 292 176.5 298.5 178.5C305 180.5 319 177.5 320.5 173.5C322 169.5 324 158 352.5 157.5C381 157 376.5 153 381 153C385.5 153 401.5 151.5 403.5 160.5C405.5 169.5 415 154.5 426.5 157.5C438 160.5 467 168 480 160.5C493 153 503 160 508 185C513 210 547 209.5 569 204C591 198.5 653 225 676 237.5C699 250 725.5 232 748 237.5C770.5 243 790.5 243.5 828 255.5C848.617 262.097 856.403 261.516 858.5 259.209V255.5C859.23 256.751 859.454 258.159 858.5 259.209V286H82V192Z" fill="url(#paint0_linear_38_290)"/>
<path d="M140.39 312L137.923 304.846H137.87C137.882 305.006 137.896 305.225 137.911 305.502C137.927 305.779 137.94 306.076 137.952 306.393C137.964 306.709 137.97 307.012 137.97 307.301V312H136.692V303.434H138.667L141.04 310.271H141.075L143.53 303.434H145.499V312H144.157V307.23C144.157 306.969 144.161 306.686 144.169 306.381C144.181 306.076 144.192 305.787 144.204 305.514C144.22 305.24 144.231 305.021 144.239 304.857H144.192L141.632 312H140.39ZM150.157 305.391C150.978 305.391 151.597 305.572 152.015 305.936C152.437 306.299 152.647 306.865 152.647 307.635V312H151.669L151.405 311.08H151.358C151.175 311.314 150.985 311.508 150.79 311.66C150.595 311.812 150.368 311.926 150.11 312C149.856 312.078 149.546 312.117 149.179 312.117C148.792 312.117 148.446 312.047 148.142 311.906C147.837 311.762 147.597 311.543 147.421 311.25C147.245 310.957 147.157 310.586 147.157 310.137C147.157 309.469 147.405 308.967 147.901 308.631C148.401 308.295 149.155 308.109 150.163 308.074L151.288 308.033V307.693C151.288 307.244 151.183 306.924 150.972 306.732C150.765 306.541 150.472 306.445 150.093 306.445C149.769 306.445 149.454 306.492 149.149 306.586C148.845 306.68 148.548 306.795 148.259 306.932L147.813 305.959C148.13 305.791 148.489 305.654 148.892 305.549C149.298 305.443 149.72 305.391 150.157 305.391ZM151.282 308.9L150.444 308.93C149.757 308.953 149.274 309.07 148.997 309.281C148.72 309.492 148.581 309.781 148.581 310.148C148.581 310.469 148.677 310.703 148.868 310.852C149.06 310.996 149.312 311.068 149.624 311.068C150.101 311.068 150.495 310.934 150.808 310.664C151.124 310.391 151.282 309.99 151.282 309.463V308.9ZM157.862 305.391C157.972 305.391 158.091 305.396 158.22 305.408C158.349 305.42 158.46 305.436 158.554 305.455L158.425 306.744C158.343 306.721 158.241 306.703 158.12 306.691C158.003 306.68 157.897 306.674 157.804 306.674C157.558 306.674 157.323 306.715 157.101 306.797C156.878 306.875 156.681 306.996 156.509 307.16C156.337 307.32 156.202 307.521 156.104 307.764C156.007 308.006 155.958 308.287 155.958 308.607V312H154.575V305.514H155.653L155.841 306.656H155.905C156.034 306.426 156.194 306.215 156.386 306.023C156.577 305.832 156.796 305.68 157.042 305.566C157.292 305.449 157.565 305.391 157.862 305.391ZM165.339 306.645C165.89 306.645 166.374 306.744 166.792 306.943C167.214 307.139 167.542 307.428 167.776 307.811C168.011 308.189 168.128 308.654 168.128 309.205C168.128 309.807 168.001 310.326 167.747 310.764C167.493 311.197 167.12 311.531 166.628 311.766C166.136 312 165.536 312.117 164.829 312.117C164.38 312.117 163.96 312.078 163.569 312C163.183 311.922 162.849 311.805 162.567 311.648V310.406C162.86 310.57 163.212 310.705 163.622 310.811C164.032 310.912 164.425 310.963 164.8 310.963C165.198 310.963 165.54 310.904 165.825 310.787C166.11 310.67 166.329 310.49 166.481 310.248C166.638 310.006 166.716 309.699 166.716 309.328C166.716 308.836 166.558 308.457 166.241 308.191C165.929 307.922 165.438 307.787 164.771 307.787C164.536 307.787 164.286 307.809 164.021 307.852C163.759 307.891 163.54 307.934 163.364 307.98L162.761 307.623L163.083 303.434H167.536V304.646H164.296L164.108 306.779C164.249 306.748 164.417 306.719 164.612 306.691C164.808 306.66 165.05 306.645 165.339 306.645Z" fill="black"/>
<path d="M287.39 312L284.923 304.846H284.87C284.882 305.006 284.896 305.225 284.911 305.502C284.927 305.779 284.94 306.076 284.952 306.393C284.964 306.709 284.97 307.012 284.97 307.301V312H283.692V303.434H285.667L288.04 310.271H288.075L290.53 303.434H292.499V312H291.157V307.23C291.157 306.969 291.161 306.686 291.169 306.381C291.181 306.076 291.192 305.787 291.204 305.514C291.22 305.24 291.231 305.021 291.239 304.857H291.192L288.632 312H287.39ZM297.157 305.391C297.978 305.391 298.597 305.572 299.015 305.936C299.437 306.299 299.647 306.865 299.647 307.635V312H298.669L298.405 311.08H298.358C298.175 311.314 297.985 311.508 297.79 311.66C297.595 311.812 297.368 311.926 297.11 312C296.856 312.078 296.546 312.117 296.179 312.117C295.792 312.117 295.446 312.047 295.142 311.906C294.837 311.762 294.597 311.543 294.421 311.25C294.245 310.957 294.157 310.586 294.157 310.137C294.157 309.469 294.405 308.967 294.901 308.631C295.401 308.295 296.155 308.109 297.163 308.074L298.288 308.033V307.693C298.288 307.244 298.183 306.924 297.972 306.732C297.765 306.541 297.472 306.445 297.093 306.445C296.769 306.445 296.454 306.492 296.149 306.586C295.845 306.68 295.548 306.795 295.259 306.932L294.813 305.959C295.13 305.791 295.489 305.654 295.892 305.549C296.298 305.443 296.72 305.391 297.157 305.391ZM298.282 308.9L297.444 308.93C296.757 308.953 296.274 309.07 295.997 309.281C295.72 309.492 295.581 309.781 295.581 310.148C295.581 310.469 295.677 310.703 295.868 310.852C296.06 310.996 296.312 311.068 296.624 311.068C297.101 311.068 297.495 310.934 297.808 310.664C298.124 310.391 298.282 309.99 298.282 309.463V308.9ZM304.862 305.391C304.972 305.391 305.091 305.396 305.22 305.408C305.349 305.42 305.46 305.436 305.554 305.455L305.425 306.744C305.343 306.721 305.241 306.703 305.12 306.691C305.003 306.68 304.897 306.674 304.804 306.674C304.558 306.674 304.323 306.715 304.101 306.797C303.878 306.875 303.681 306.996 303.509 307.16C303.337 307.32 303.202 307.521 303.104 307.764C303.007 308.006 302.958 308.287 302.958 308.607V312H301.575V305.514H302.653L302.841 306.656H302.905C303.034 306.426 303.194 306.215 303.386 306.023C303.577 305.832 303.796 305.68 304.042 305.566C304.292 305.449 304.565 305.391 304.862 305.391ZM313.476 312H312.093V306.486C312.093 306.303 312.095 306.119 312.099 305.936C312.103 305.752 312.106 305.572 312.11 305.396C312.118 305.221 312.128 305.053 312.14 304.893C312.058 304.982 311.956 305.08 311.835 305.186C311.718 305.291 311.593 305.4 311.46 305.514L310.476 306.299L309.784 305.426L312.327 303.434H313.476V312ZM322.095 312H316.294V310.963L318.515 308.713C318.944 308.275 319.298 307.898 319.575 307.582C319.853 307.262 320.058 306.959 320.19 306.674C320.327 306.389 320.396 306.078 320.396 305.742C320.396 305.328 320.276 305.016 320.038 304.805C319.8 304.59 319.485 304.482 319.095 304.482C318.724 304.482 318.38 304.557 318.063 304.705C317.751 304.85 317.427 305.057 317.091 305.326L316.335 304.418C316.573 304.215 316.827 304.029 317.097 303.861C317.37 303.693 317.675 303.561 318.011 303.463C318.347 303.361 318.729 303.311 319.159 303.311C319.702 303.311 320.171 303.408 320.565 303.604C320.96 303.795 321.263 304.062 321.474 304.406C321.688 304.75 321.796 305.15 321.796 305.607C321.796 306.068 321.704 306.494 321.521 306.885C321.337 307.275 321.075 307.662 320.735 308.045C320.396 308.424 319.991 308.836 319.522 309.281L318.04 310.729V310.793H322.095V312Z" fill="black"/>
<path d="M441.39 312L438.923 304.846H438.87C438.882 305.006 438.896 305.225 438.911 305.502C438.927 305.779 438.94 306.076 438.952 306.393C438.964 306.709 438.97 307.012 438.97 307.301V312H437.692V303.434H439.667L442.04 310.271H442.075L444.53 303.434H446.499V312H445.157V307.23C445.157 306.969 445.161 306.686 445.169 306.381C445.181 306.076 445.192 305.787 445.204 305.514C445.22 305.24 445.231 305.021 445.239 304.857H445.192L442.632 312H441.39ZM451.157 305.391C451.978 305.391 452.597 305.572 453.015 305.936C453.437 306.299 453.647 306.865 453.647 307.635V312H452.669L452.405 311.08H452.358C452.175 311.314 451.985 311.508 451.79 311.66C451.595 311.812 451.368 311.926 451.11 312C450.856 312.078 450.546 312.117 450.179 312.117C449.792 312.117 449.446 312.047 449.142 311.906C448.837 311.762 448.597 311.543 448.421 311.25C448.245 310.957 448.157 310.586 448.157 310.137C448.157 309.469 448.405 308.967 448.901 308.631C449.401 308.295 450.155 308.109 451.163 308.074L452.288 308.033V307.693C452.288 307.244 452.183 306.924 451.972 306.732C451.765 306.541 451.472 306.445 451.093 306.445C450.769 306.445 450.454 306.492 450.149 306.586C449.845 306.68 449.548 306.795 449.259 306.932L448.813 305.959C449.13 305.791 449.489 305.654 449.892 305.549C450.298 305.443 450.72 305.391 451.157 305.391ZM452.282 308.9L451.444 308.93C450.757 308.953 450.274 309.07 449.997 309.281C449.72 309.492 449.581 309.781 449.581 310.148C449.581 310.469 449.677 310.703 449.868 310.852C450.06 310.996 450.312 311.068 450.624 311.068C451.101 311.068 451.495 310.934 451.808 310.664C452.124 310.391 452.282 309.99 452.282 309.463V308.9ZM458.862 305.391C458.972 305.391 459.091 305.396 459.22 305.408C459.349 305.42 459.46 305.436 459.554 305.455L459.425 306.744C459.343 306.721 459.241 306.703 459.12 306.691C459.003 306.68 458.897 306.674 458.804 306.674C458.558 306.674 458.323 306.715 458.101 306.797C457.878 306.875 457.681 306.996 457.509 307.16C457.337 307.32 457.202 307.521 457.104 307.764C457.007 308.006 456.958 308.287 456.958 308.607V312H455.575V305.514H456.653L456.841 306.656H456.905C457.034 306.426 457.194 306.215 457.386 306.023C457.577 305.832 457.796 305.68 458.042 305.566C458.292 305.449 458.565 305.391 458.862 305.391ZM467.476 312H466.093V306.486C466.093 306.303 466.095 306.119 466.099 305.936C466.103 305.752 466.106 305.572 466.11 305.396C466.118 305.221 466.128 305.053 466.14 304.893C466.058 304.982 465.956 305.08 465.835 305.186C465.718 305.291 465.593 305.4 465.46 305.514L464.476 306.299L463.784 305.426L466.327 303.434H467.476V312ZM476.083 307.084C476.083 307.592 476.046 308.09 475.972 308.578C475.901 309.066 475.776 309.523 475.597 309.949C475.421 310.375 475.177 310.752 474.864 311.08C474.556 311.404 474.165 311.658 473.692 311.842C473.22 312.025 472.649 312.117 471.981 312.117C471.813 312.117 471.618 312.107 471.396 312.088C471.177 312.072 470.997 312.049 470.856 312.018V310.869C471.005 310.912 471.171 310.947 471.354 310.975C471.542 310.998 471.728 311.01 471.911 311.01C472.634 311.01 473.196 310.875 473.599 310.605C474.005 310.336 474.292 309.965 474.46 309.492C474.632 309.02 474.729 308.482 474.753 307.881H474.683C474.569 308.068 474.427 308.24 474.255 308.396C474.083 308.549 473.87 308.672 473.616 308.766C473.362 308.855 473.054 308.9 472.69 308.9C472.198 308.9 471.769 308.797 471.401 308.59C471.038 308.383 470.755 308.082 470.552 307.688C470.353 307.289 470.253 306.811 470.253 306.252C470.253 305.646 470.368 305.125 470.599 304.688C470.829 304.25 471.155 303.914 471.577 303.68C471.999 303.441 472.495 303.322 473.065 303.322C473.495 303.322 473.892 303.4 474.255 303.557C474.622 303.709 474.942 303.943 475.216 304.26C475.489 304.572 475.702 304.965 475.854 305.438C476.007 305.906 476.083 306.455 476.083 307.084ZM473.083 304.459C472.649 304.459 472.296 304.605 472.022 304.898C471.749 305.188 471.612 305.633 471.612 306.234C471.612 306.723 471.729 307.109 471.964 307.395C472.198 307.68 472.558 307.822 473.042 307.822C473.378 307.822 473.667 307.754 473.909 307.617C474.155 307.477 474.345 307.299 474.478 307.084C474.614 306.869 474.683 306.65 474.683 306.428C474.683 306.197 474.649 305.967 474.583 305.736C474.521 305.506 474.423 305.295 474.29 305.104C474.157 304.912 473.989 304.758 473.786 304.641C473.587 304.52 473.353 304.459 473.083 304.459Z" fill="black"/>
<path d="M595.39 312L592.923 304.846H592.87C592.882 305.006 592.896 305.225 592.911 305.502C592.927 305.779 592.94 306.076 592.952 306.393C592.964 306.709 592.97 307.012 592.97 307.301V312H591.692V303.434H593.667L596.04 310.271H596.075L598.53 303.434H600.499V312H599.157V307.23C599.157 306.969 599.161 306.686 599.169 306.381C599.181 306.076 599.192 305.787 599.204 305.514C599.22 305.24 599.231 305.021 599.239 304.857H599.192L596.632 312H595.39ZM605.157 305.391C605.978 305.391 606.597 305.572 607.015 305.936C607.437 306.299 607.647 306.865 607.647 307.635V312H606.669L606.405 311.08H606.358C606.175 311.314 605.985 311.508 605.79 311.66C605.595 311.812 605.368 311.926 605.11 312C604.856 312.078 604.546 312.117 604.179 312.117C603.792 312.117 603.446 312.047 603.142 311.906C602.837 311.762 602.597 311.543 602.421 311.25C602.245 310.957 602.157 310.586 602.157 310.137C602.157 309.469 602.405 308.967 602.901 308.631C603.401 308.295 604.155 308.109 605.163 308.074L606.288 308.033V307.693C606.288 307.244 606.183 306.924 605.972 306.732C605.765 306.541 605.472 306.445 605.093 306.445C604.769 306.445 604.454 306.492 604.149 306.586C603.845 306.68 603.548 306.795 603.259 306.932L602.813 305.959C603.13 305.791 603.489 305.654 603.892 305.549C604.298 305.443 604.72 305.391 605.157 305.391ZM606.282 308.9L605.444 308.93C604.757 308.953 604.274 309.07 603.997 309.281C603.72 309.492 603.581 309.781 603.581 310.148C603.581 310.469 603.677 310.703 603.868 310.852C604.06 310.996 604.312 311.068 604.624 311.068C605.101 311.068 605.495 310.934 605.808 310.664C606.124 310.391 606.282 309.99 606.282 309.463V308.9ZM612.862 305.391C612.972 305.391 613.091 305.396 613.22 305.408C613.349 305.42 613.46 305.436 613.554 305.455L613.425 306.744C613.343 306.721 613.241 306.703 613.12 306.691C613.003 306.68 612.897 306.674 612.804 306.674C612.558 306.674 612.323 306.715 612.101 306.797C611.878 306.875 611.681 306.996 611.509 307.16C611.337 307.32 611.202 307.521 611.104 307.764C611.007 308.006 610.958 308.287 610.958 308.607V312H609.575V305.514H610.653L610.841 306.656H610.905C611.034 306.426 611.194 306.215 611.386 306.023C611.577 305.832 611.796 305.68 612.042 305.566C612.292 305.449 612.565 305.391 612.862 305.391ZM623.228 312H617.427V310.963L619.647 308.713C620.077 308.275 620.431 307.898 620.708 307.582C620.985 307.262 621.19 306.959 621.323 306.674C621.46 306.389 621.528 306.078 621.528 305.742C621.528 305.328 621.409 305.016 621.171 304.805C620.933 304.59 620.618 304.482 620.228 304.482C619.856 304.482 619.513 304.557 619.196 304.705C618.884 304.85 618.56 305.057 618.224 305.326L617.468 304.418C617.706 304.215 617.96 304.029 618.229 303.861C618.503 303.693 618.808 303.561 619.144 303.463C619.479 303.361 619.862 303.311 620.292 303.311C620.835 303.311 621.304 303.408 621.698 303.604C622.093 303.795 622.396 304.062 622.606 304.406C622.821 304.75 622.929 305.15 622.929 305.607C622.929 306.068 622.837 306.494 622.653 306.885C622.47 307.275 622.208 307.662 621.868 308.045C621.528 308.424 621.124 308.836 620.655 309.281L619.173 310.729V310.793H623.228V312ZM624.306 308.35C624.306 307.846 624.341 307.35 624.411 306.861C624.485 306.373 624.61 305.916 624.786 305.49C624.962 305.064 625.204 304.689 625.513 304.365C625.825 304.041 626.218 303.787 626.69 303.604C627.163 303.416 627.731 303.322 628.396 303.322C628.567 303.322 628.761 303.33 628.976 303.346C629.19 303.361 629.368 303.387 629.509 303.422V304.564C629.356 304.521 629.188 304.488 629.005 304.465C628.825 304.441 628.646 304.43 628.466 304.43C627.747 304.43 627.187 304.566 626.784 304.84C626.382 305.109 626.095 305.48 625.923 305.953C625.751 306.422 625.651 306.959 625.624 307.564H625.694C625.812 307.369 625.958 307.195 626.134 307.043C626.31 306.891 626.524 306.77 626.778 306.68C627.032 306.586 627.327 306.539 627.663 306.539C628.163 306.539 628.599 306.645 628.97 306.855C629.341 307.062 629.626 307.363 629.825 307.758C630.028 308.152 630.13 308.631 630.13 309.193C630.13 309.799 630.015 310.32 629.784 310.758C629.558 311.195 629.233 311.531 628.812 311.766C628.394 312 627.896 312.117 627.317 312.117C626.892 312.117 626.495 312.039 626.128 311.883C625.765 311.727 625.446 311.492 625.173 311.18C624.899 310.867 624.687 310.477 624.534 310.008C624.382 309.535 624.306 308.982 624.306 308.35ZM627.294 310.98C627.739 310.98 628.097 310.836 628.366 310.547C628.64 310.254 628.776 309.807 628.776 309.205C628.776 308.717 628.655 308.33 628.413 308.045C628.175 307.76 627.815 307.617 627.335 307.617C627.007 307.617 626.72 307.688 626.474 307.828C626.228 307.969 626.036 308.146 625.899 308.361C625.767 308.576 625.7 308.795 625.7 309.018C625.7 309.244 625.733 309.473 625.8 309.703C625.866 309.934 625.966 310.146 626.099 310.342C626.231 310.533 626.397 310.688 626.597 310.805C626.796 310.922 627.028 310.98 627.294 310.98Z" fill="black"/>
<path d="M751.001 312L750.163 309.621H746.888L746.05 312H744.567L747.755 303.398H749.313L752.495 312H751.001ZM749.8 308.414L748.985 306.07C748.954 305.969 748.909 305.826 748.851 305.643C748.792 305.455 748.733 305.266 748.675 305.074C748.616 304.879 748.567 304.715 748.528 304.582C748.489 304.742 748.44 304.922 748.382 305.121C748.327 305.316 748.272 305.5 748.218 305.672C748.167 305.844 748.128 305.977 748.101 306.07L747.28 308.414H749.8ZM756.813 305.391C757.583 305.391 758.2 305.672 758.665 306.234C759.134 306.797 759.368 307.633 759.368 308.742C759.368 309.477 759.259 310.096 759.04 310.6C758.825 311.1 758.522 311.479 758.132 311.736C757.745 311.99 757.294 312.117 756.778 312.117C756.45 312.117 756.165 312.074 755.923 311.988C755.681 311.902 755.474 311.791 755.302 311.654C755.13 311.514 754.985 311.361 754.868 311.197H754.786C754.806 311.354 754.823 311.527 754.839 311.719C754.858 311.906 754.868 312.078 754.868 312.234V314.877H753.485V305.514H754.61L754.804 306.41H754.868C754.989 306.227 755.136 306.057 755.308 305.9C755.483 305.744 755.694 305.621 755.94 305.531C756.19 305.438 756.481 305.391 756.813 305.391ZM756.444 306.516C756.065 306.516 755.761 306.592 755.53 306.744C755.304 306.893 755.138 307.117 755.032 307.418C754.931 307.719 754.876 308.096 754.868 308.549V308.742C754.868 309.223 754.917 309.631 755.015 309.967C755.116 310.299 755.282 310.553 755.513 310.729C755.747 310.9 756.063 310.986 756.462 310.986C756.798 310.986 757.075 310.895 757.294 310.711C757.517 310.527 757.683 310.266 757.792 309.926C757.901 309.586 757.956 309.186 757.956 308.725C757.956 308.025 757.831 307.482 757.581 307.096C757.335 306.709 756.956 306.516 756.444 306.516ZM764.249 305.391C764.358 305.391 764.478 305.396 764.606 305.408C764.735 305.42 764.847 305.436 764.94 305.455L764.812 306.744C764.729 306.721 764.628 306.703 764.507 306.691C764.39 306.68 764.284 306.674 764.19 306.674C763.944 306.674 763.71 306.715 763.487 306.797C763.265 306.875 763.067 306.996 762.896 307.16C762.724 307.32 762.589 307.521 762.491 307.764C762.394 308.006 762.345 308.287 762.345 308.607V312H760.962V305.514H762.04L762.228 306.656H762.292C762.421 306.426 762.581 306.215 762.772 306.023C762.964 305.832 763.183 305.68 763.429 305.566C763.679 305.449 763.952 305.391 764.249 305.391ZM774.614 312H768.813V310.963L771.034 308.713C771.464 308.275 771.817 307.898 772.095 307.582C772.372 307.262 772.577 306.959 772.71 306.674C772.847 306.389 772.915 306.078 772.915 305.742C772.915 305.328 772.796 305.016 772.558 304.805C772.319 304.59 772.005 304.482 771.614 304.482C771.243 304.482 770.899 304.557 770.583 304.705C770.271 304.85 769.946 305.057 769.61 305.326L768.854 304.418C769.093 304.215 769.347 304.029 769.616 303.861C769.89 303.693 770.194 303.561 770.53 303.463C770.866 303.361 771.249 303.311 771.679 303.311C772.222 303.311 772.69 303.408 773.085 303.604C773.479 303.795 773.782 304.062 773.993 304.406C774.208 304.75 774.315 305.15 774.315 305.607C774.315 306.068 774.224 306.494 774.04 306.885C773.856 307.275 773.595 307.662 773.255 308.045C772.915 308.424 772.511 308.836 772.042 309.281L770.56 310.729V310.793H774.614V312Z" fill="black"/>
</g>
<defs>
<filter id="filter0_d_38_290" x="0" y="0" width="911.134" height="371" filterUnits="userSpaceOnUse" color-interpolation-filters="sRGB">
<feFlood flood-opacity="0" result="BackgroundImageFix"/>
<feColorMatrix in="SourceAlpha" type="matrix" values="0 0 0 0 0 0 0 0 0 0 0 0 0 0 0 0 0 0 127 0" result="hardAlpha"/>
<feOffset dy="4"/>
<feGaussianBlur stdDeviation="14"/>
<feComposite in2="hardAlpha" operator="out"/>
<feColorMatrix type="matrix" values="0 0 0 0 0 0 0 0 0 0 0 0 0 0 0 0 0 0 0.25 0"/>
<feBlend mode="normal" in2="BackgroundImageFix" result="effect1_dropShadow_38_290"/>
<feBlend mode="normal" in="SourceGraphic" in2="effect1_dropShadow_38_290" result="shape"/>
</filter>
<linearGradient id="paint0_linear_38_290" x1="470.567" y1="152.906" x2="470.567" y2="286" gradientUnits="userSpaceOnUse">
<stop stop-color="#FFC90C"/>
<stop offset="1" stop-color="#D9D9D9" stop-opacity="0"/>
</linearGradient>
</defs>
</svg>
