<svg width="608" height="669" viewBox="0 0 608 669" fill="none" xmlns="http://www.w3.org/2000/svg">
<g filter="url(#filter0_d_38_311)">
<rect x="28" y="23" width="552" height="613" rx="8" fill="white" shape-rendering="crispEdges"/>
<path d="M547.973 362.097C536.169 407.737 511.801 449.151 477.636 481.633C443.471 514.114 400.88 536.362 354.702 545.847C308.525 555.332 260.613 551.673 216.411 535.288C172.208 518.903 133.488 490.447 104.651 453.155C75.8131 415.863 58.0139 371.23 53.276 324.327C48.538 277.425 57.0513 230.133 77.8483 187.827C98.6453 145.521 130.892 109.897 170.924 85.0026C210.957 60.1083 257.169 46.9421 304.311 47.0002L304.217 122.6C271.218 122.559 238.87 131.776 210.847 149.202C182.824 166.628 160.252 191.565 145.694 221.179C131.136 250.793 125.177 283.897 128.493 316.729C131.81 349.561 144.269 380.804 164.456 406.909C184.642 433.013 211.746 452.932 242.687 464.402C273.629 475.871 307.167 478.432 339.492 471.793C371.816 465.153 401.63 449.58 425.545 426.843C449.46 404.105 466.519 375.116 474.781 343.168L547.973 362.097Z" fill="#FFC90C"/>
<path d="M506.261 148.685C482.837 117.166 452.37 91.5573 417.292 73.9024C382.214 56.2475 343.495 47.0351 304.224 47.0001L304.157 122.6C331.646 122.625 358.75 129.073 383.304 141.432C407.859 153.79 429.186 171.716 445.583 193.78L506.261 148.685Z" fill="#028480"/>
<path d="M506.046 148.396C521.849 169.598 534.217 193.155 542.696 218.203L471.087 242.442C465.152 224.908 456.495 208.418 445.432 193.577L506.046 148.396Z" fill="#CE1878"/>
<path d="M542.592 217.895C558.505 264.707 560.295 315.166 547.741 362.988L474.618 343.792C483.407 310.316 482.153 274.995 471.014 242.226L542.592 217.895Z" fill="#535353"/>
<path d="M225.344 308L223.633 303.242H217.082L215.406 308H212.453L218.863 290.797H221.91L228.32 308H225.344ZM222.895 300.828L221.289 296.164C221.172 295.852 221.008 295.359 220.797 294.688C220.594 294.016 220.453 293.523 220.375 293.211C220.164 294.172 219.855 295.223 219.449 296.363L217.902 300.828H222.895ZM241.211 308H238.445V300.008C238.445 299.016 238.258 298.277 237.883 297.793C237.508 297.301 236.922 297.055 236.125 297.055C235.062 297.055 234.281 297.402 233.781 298.098C233.289 298.785 233.043 299.934 233.043 301.543V308H230.289V295.039H232.445L232.832 296.738H232.973C233.332 296.121 233.852 295.645 234.531 295.309C235.219 294.973 235.973 294.805 236.793 294.805C238.785 294.805 240.105 295.484 240.754 296.844H240.941C241.324 296.203 241.863 295.703 242.559 295.344C243.254 294.984 244.051 294.805 244.949 294.805C246.496 294.805 247.621 295.195 248.324 295.977C249.035 296.758 249.391 297.949 249.391 299.551V308H246.637V300.008C246.637 299.016 246.445 298.277 246.062 297.793C245.688 297.301 245.102 297.055 244.305 297.055C243.234 297.055 242.449 297.391 241.949 298.062C241.457 298.727 241.211 299.75 241.211 301.133V308ZM264.73 301.496C264.73 303.613 264.188 305.266 263.102 306.453C262.016 307.641 260.504 308.234 258.566 308.234C257.355 308.234 256.285 307.961 255.355 307.414C254.426 306.867 253.711 306.082 253.211 305.059C252.711 304.035 252.461 302.848 252.461 301.496C252.461 299.395 253 297.754 254.078 296.574C255.156 295.395 256.676 294.805 258.637 294.805C260.512 294.805 261.996 295.41 263.09 296.621C264.184 297.824 264.73 299.449 264.73 301.496ZM255.297 301.496C255.297 304.488 256.402 305.984 258.613 305.984C260.801 305.984 261.895 304.488 261.895 301.496C261.895 298.535 260.793 297.055 258.59 297.055C257.434 297.055 256.594 297.438 256.07 298.203C255.555 298.969 255.297 300.066 255.297 301.496ZM277.047 308L276.66 306.301H276.52C276.137 306.902 275.59 307.375 274.879 307.719C274.176 308.062 273.371 308.234 272.465 308.234C270.895 308.234 269.723 307.844 268.949 307.062C268.176 306.281 267.789 305.098 267.789 303.512V295.039H270.566V303.031C270.566 304.023 270.77 304.77 271.176 305.27C271.582 305.762 272.219 306.008 273.086 306.008C274.242 306.008 275.09 305.664 275.629 304.977C276.176 304.281 276.449 303.121 276.449 301.496V295.039H279.215V308H277.047ZM294.543 308H291.777V300.031C291.777 299.031 291.574 298.285 291.168 297.793C290.77 297.301 290.133 297.055 289.258 297.055C288.094 297.055 287.242 297.398 286.703 298.086C286.164 298.773 285.895 299.926 285.895 301.543V308H283.141V295.039H285.297L285.684 296.738H285.824C286.215 296.121 286.77 295.645 287.488 295.309C288.207 294.973 289.004 294.805 289.879 294.805C292.988 294.805 294.543 296.387 294.543 299.551V308ZM303.203 306.008C303.875 306.008 304.547 305.902 305.219 305.691V307.766C304.914 307.898 304.52 308.008 304.035 308.094C303.559 308.188 303.062 308.234 302.547 308.234C299.938 308.234 298.633 306.859 298.633 304.109V297.125H296.863V295.906L298.762 294.898L299.699 292.156H301.398V295.039H305.09V297.125H301.398V304.062C301.398 304.727 301.562 305.219 301.891 305.539C302.227 305.852 302.664 306.008 303.203 306.008ZM319.281 308.234C317.32 308.234 315.828 307.664 314.805 306.523C313.789 305.375 313.281 303.73 313.281 301.59C313.281 299.41 313.812 297.734 314.875 296.562C315.945 295.391 317.488 294.805 319.504 294.805C320.871 294.805 322.102 295.059 323.195 295.566L322.363 297.781C321.199 297.328 320.238 297.102 319.48 297.102C317.238 297.102 316.117 298.59 316.117 301.566C316.117 303.02 316.395 304.113 316.949 304.848C317.512 305.574 318.332 305.938 319.41 305.938C320.637 305.938 321.797 305.633 322.891 305.023V307.426C322.398 307.715 321.871 307.922 321.309 308.047C320.754 308.172 320.078 308.234 319.281 308.234ZM337.34 308H334.574V300.031C334.574 299.031 334.371 298.285 333.965 297.793C333.566 297.301 332.93 297.055 332.055 297.055C330.898 297.055 330.047 297.402 329.5 298.098C328.961 298.785 328.691 299.941 328.691 301.566V308H325.938V289.766H328.691V294.395C328.691 295.137 328.645 295.93 328.551 296.773H328.727C329.102 296.148 329.621 295.664 330.285 295.32C330.957 294.977 331.738 294.805 332.629 294.805C335.77 294.805 337.34 296.387 337.34 299.551V308ZM349.281 308L348.73 306.195H348.637C348.012 306.984 347.383 307.523 346.75 307.812C346.117 308.094 345.305 308.234 344.312 308.234C343.039 308.234 342.043 307.891 341.324 307.203C340.613 306.516 340.258 305.543 340.258 304.285C340.258 302.949 340.754 301.941 341.746 301.262C342.738 300.582 344.25 300.211 346.281 300.148L348.52 300.078V299.387C348.52 298.559 348.324 297.941 347.934 297.535C347.551 297.121 346.953 296.914 346.141 296.914C345.477 296.914 344.84 297.012 344.23 297.207C343.621 297.402 343.035 297.633 342.473 297.898L341.582 295.93C342.285 295.562 343.055 295.285 343.891 295.098C344.727 294.902 345.516 294.805 346.258 294.805C347.906 294.805 349.148 295.164 349.984 295.883C350.828 296.602 351.25 297.73 351.25 299.27V308H349.281ZM345.18 306.125C346.18 306.125 346.98 305.848 347.582 305.293C348.191 304.73 348.496 303.945 348.496 302.938V301.812L346.832 301.883C345.535 301.93 344.59 302.148 343.996 302.539C343.41 302.922 343.117 303.512 343.117 304.309C343.117 304.887 343.289 305.336 343.633 305.656C343.977 305.969 344.492 306.125 345.18 306.125ZM366.496 308H363.73V300.031C363.73 299.031 363.527 298.285 363.121 297.793C362.723 297.301 362.086 297.055 361.211 297.055C360.047 297.055 359.195 297.398 358.656 298.086C358.117 298.773 357.848 299.926 357.848 301.543V308H355.094V295.039H357.25L357.637 296.738H357.777C358.168 296.121 358.723 295.645 359.441 295.309C360.16 294.973 360.957 294.805 361.832 294.805C364.941 294.805 366.496 296.387 366.496 299.551V308ZM381.273 295.039V296.551L379.059 296.961C379.262 297.234 379.43 297.57 379.562 297.969C379.695 298.367 379.762 298.789 379.762 299.234C379.762 300.57 379.301 301.621 378.379 302.387C377.457 303.152 376.188 303.535 374.57 303.535C374.156 303.535 373.781 303.504 373.445 303.441C372.852 303.809 372.555 304.238 372.555 304.73C372.555 305.027 372.691 305.25 372.965 305.398C373.246 305.547 373.758 305.621 374.5 305.621H376.762C378.191 305.621 379.277 305.926 380.02 306.535C380.762 307.145 381.133 308.023 381.133 309.172C381.133 310.641 380.527 311.773 379.316 312.57C378.105 313.367 376.355 313.766 374.066 313.766C372.301 313.766 370.953 313.453 370.023 312.828C369.094 312.203 368.629 311.312 368.629 310.156C368.629 309.359 368.879 308.688 369.379 308.141C369.887 307.602 370.594 307.227 371.5 307.016C371.133 306.859 370.828 306.609 370.586 306.266C370.352 305.914 370.234 305.547 370.234 305.164C370.234 304.68 370.371 304.27 370.645 303.934C370.918 303.598 371.324 303.266 371.863 302.938C371.191 302.648 370.645 302.18 370.223 301.531C369.809 300.875 369.602 300.109 369.602 299.234C369.602 297.828 370.043 296.738 370.926 295.965C371.816 295.191 373.082 294.805 374.723 294.805C375.09 294.805 375.473 294.832 375.871 294.887C376.277 294.934 376.582 294.984 376.785 295.039H381.273ZM371.09 310.016C371.09 310.609 371.355 311.066 371.887 311.387C372.426 311.707 373.18 311.867 374.148 311.867C375.648 311.867 376.766 311.652 377.5 311.223C378.234 310.793 378.602 310.223 378.602 309.512C378.602 308.949 378.398 308.547 377.992 308.305C377.594 308.07 376.848 307.953 375.754 307.953H373.668C372.879 307.953 372.25 308.137 371.781 308.504C371.32 308.879 371.09 309.383 371.09 310.016ZM372.273 299.234C372.273 300.047 372.48 300.672 372.895 301.109C373.316 301.547 373.918 301.766 374.699 301.766C376.293 301.766 377.09 300.914 377.09 299.211C377.09 298.367 376.891 297.719 376.492 297.266C376.102 296.805 375.504 296.574 374.699 296.574C373.902 296.574 373.297 296.801 372.883 297.254C372.477 297.707 372.273 298.367 372.273 299.234ZM389.348 308.234C387.332 308.234 385.754 307.648 384.613 306.477C383.48 305.297 382.914 303.676 382.914 301.613C382.914 299.496 383.441 297.832 384.496 296.621C385.551 295.41 387 294.805 388.844 294.805C390.555 294.805 391.906 295.324 392.898 296.363C393.891 297.402 394.387 298.832 394.387 300.652V302.141H385.75C385.789 303.398 386.129 304.367 386.77 305.047C387.41 305.719 388.312 306.055 389.477 306.055C390.242 306.055 390.953 305.984 391.609 305.844C392.273 305.695 392.984 305.453 393.742 305.117V307.355C393.07 307.676 392.391 307.902 391.703 308.035C391.016 308.168 390.23 308.234 389.348 308.234ZM388.844 296.891C387.969 296.891 387.266 297.168 386.734 297.723C386.211 298.277 385.898 299.086 385.797 300.148H391.68C391.664 299.078 391.406 298.27 390.906 297.723C390.406 297.168 389.719 296.891 388.844 296.891Z" fill="black"/>
<path d="M64.5859 305L69.666 293.987H62.9863V292.168H71.8721V293.609L66.8184 305H64.5859ZM82.1201 298.575C82.1201 300.808 81.7598 302.466 81.0391 303.55C80.3242 304.634 79.2285 305.176 77.752 305.176C76.3223 305.176 75.2383 304.616 74.5 303.497C73.7617 302.378 73.3926 300.737 73.3926 298.575C73.3926 296.308 73.75 294.638 74.4648 293.565C75.1855 292.487 76.2812 291.948 77.752 291.948C79.1875 291.948 80.2744 292.511 81.0127 293.636C81.751 294.761 82.1201 296.407 82.1201 298.575ZM75.4844 298.575C75.4844 300.327 75.6631 301.578 76.0205 302.328C76.3838 303.078 76.9609 303.453 77.752 303.453C78.543 303.453 79.1201 303.072 79.4834 302.311C79.8525 301.549 80.0371 300.304 80.0371 298.575C80.0371 296.853 79.8525 295.607 79.4834 294.84C79.1201 294.066 78.543 293.68 77.752 293.68C76.9609 293.68 76.3838 294.058 76.0205 294.813C75.6631 295.569 75.4844 296.823 75.4844 298.575ZM84.0713 303.901C84.0713 303.474 84.1826 303.146 84.4053 302.917C84.6279 302.688 84.9502 302.574 85.3721 302.574C85.7998 302.574 86.125 302.694 86.3477 302.935C86.5703 303.169 86.6816 303.491 86.6816 303.901C86.6816 304.317 86.5674 304.648 86.3389 304.895C86.1162 305.135 85.7939 305.255 85.3721 305.255C84.9502 305.255 84.6279 305.135 84.4053 304.895C84.1826 304.654 84.0713 304.323 84.0713 303.901ZM90.1094 305L95.1895 293.987H88.5098V292.168H97.3955V293.609L92.3418 305H90.1094ZM100.595 296C100.595 296.873 100.68 297.523 100.85 297.951C101.02 298.379 101.298 298.593 101.685 298.593C102.458 298.593 102.845 297.729 102.845 296C102.845 294.271 102.458 293.407 101.685 293.407C101.298 293.407 101.02 293.621 100.85 294.049C100.68 294.477 100.595 295.127 100.595 296ZM104.55 295.982C104.55 297.33 104.307 298.344 103.82 299.023C103.34 299.697 102.628 300.034 101.685 300.034C100.794 300.034 100.103 299.686 99.6104 298.988C99.124 298.285 98.8809 297.283 98.8809 295.982C98.8809 293.305 99.8154 291.966 101.685 291.966C102.604 291.966 103.311 292.314 103.803 293.012C104.301 293.703 104.55 294.693 104.55 295.982ZM108.962 301.133C108.962 302.006 109.047 302.659 109.217 303.093C109.393 303.526 109.674 303.743 110.061 303.743C110.828 303.743 111.212 302.873 111.212 301.133C111.212 299.416 110.828 298.558 110.061 298.558C109.674 298.558 109.393 298.769 109.217 299.19C109.047 299.612 108.962 300.26 108.962 301.133ZM112.917 301.133C112.917 302.48 112.674 303.491 112.188 304.165C111.701 304.839 110.992 305.176 110.061 305.176C109.17 305.176 108.479 304.83 107.986 304.139C107.494 303.441 107.248 302.439 107.248 301.133C107.248 298.455 108.186 297.116 110.061 297.116C110.963 297.116 111.663 297.462 112.161 298.153C112.665 298.845 112.917 299.838 112.917 301.133ZM110.307 292.15L103.179 305H101.474L108.602 292.15H110.307Z" fill="white"/>
<path d="M506.961 297.635C506.961 300.166 506.451 302.056 505.432 303.304C504.412 304.552 502.877 305.176 500.826 305.176C500.047 305.176 499.487 305.129 499.147 305.035V303.304C499.669 303.45 500.193 303.523 500.721 303.523C502.115 303.523 503.155 303.148 503.841 302.398C504.526 301.648 504.901 300.471 504.966 298.865H504.86C504.515 299.393 504.096 299.773 503.604 300.008C503.117 300.242 502.546 300.359 501.89 300.359C500.753 300.359 499.859 300.005 499.209 299.296C498.559 298.587 498.233 297.614 498.233 296.378C498.233 295.036 498.608 293.97 499.358 293.179C500.114 292.382 501.143 291.983 502.443 291.983C503.357 291.983 504.154 292.206 504.834 292.651C505.514 293.097 506.038 293.744 506.407 294.594C506.776 295.438 506.961 296.451 506.961 297.635ZM502.479 293.697C501.764 293.697 501.216 293.932 500.835 294.4C500.454 294.863 500.264 295.517 500.264 296.36C500.264 297.093 500.439 297.67 500.791 298.092C501.148 298.508 501.688 298.716 502.408 298.716C503.105 298.716 503.691 298.508 504.166 298.092C504.641 297.676 504.878 297.189 504.878 296.633C504.878 296.111 504.775 295.625 504.57 295.174C504.371 294.717 504.09 294.356 503.727 294.093C503.363 293.829 502.947 293.697 502.479 293.697ZM508.93 303.901C508.93 303.474 509.041 303.146 509.264 302.917C509.486 302.688 509.809 302.574 510.23 302.574C510.658 302.574 510.983 302.694 511.206 302.935C511.429 303.169 511.54 303.491 511.54 303.901C511.54 304.317 511.426 304.648 511.197 304.895C510.975 305.135 510.652 305.255 510.23 305.255C509.809 305.255 509.486 305.135 509.264 304.895C509.041 304.654 508.93 304.323 508.93 303.901ZM513.544 299.524C513.544 294.497 515.592 291.983 519.688 291.983C520.332 291.983 520.877 292.033 521.322 292.133V293.855C520.877 293.727 520.361 293.662 519.775 293.662C518.398 293.662 517.364 294.031 516.673 294.77C515.981 295.508 515.606 296.691 515.548 298.32H515.653C515.929 297.846 516.315 297.479 516.813 297.222C517.312 296.958 517.897 296.826 518.571 296.826C519.737 296.826 520.646 297.184 521.296 297.898C521.946 298.613 522.271 299.583 522.271 300.808C522.271 302.155 521.894 303.222 521.138 304.007C520.388 304.786 519.362 305.176 518.062 305.176C517.142 305.176 516.342 304.956 515.662 304.517C514.982 304.071 514.458 303.427 514.089 302.583C513.726 301.733 513.544 300.714 513.544 299.524ZM518.026 303.471C518.735 303.471 519.28 303.242 519.661 302.785C520.048 302.328 520.241 301.675 520.241 300.825C520.241 300.087 520.06 299.507 519.696 299.085C519.339 298.663 518.8 298.452 518.079 298.452C517.634 298.452 517.224 298.549 516.849 298.742C516.474 298.93 516.178 299.19 515.961 299.524C515.744 299.853 515.636 300.189 515.636 300.535C515.636 301.361 515.858 302.059 516.304 302.627C516.755 303.189 517.329 303.471 518.026 303.471ZM525.453 296C525.453 296.873 525.538 297.523 525.708 297.951C525.878 298.379 526.156 298.593 526.543 298.593C527.316 298.593 527.703 297.729 527.703 296C527.703 294.271 527.316 293.407 526.543 293.407C526.156 293.407 525.878 293.621 525.708 294.049C525.538 294.477 525.453 295.127 525.453 296ZM529.408 295.982C529.408 297.33 529.165 298.344 528.679 299.023C528.198 299.697 527.486 300.034 526.543 300.034C525.652 300.034 524.961 299.686 524.469 298.988C523.982 298.285 523.739 297.283 523.739 295.982C523.739 293.305 524.674 291.966 526.543 291.966C527.463 291.966 528.169 292.314 528.661 293.012C529.159 293.703 529.408 294.693 529.408 295.982ZM533.82 301.133C533.82 302.006 533.905 302.659 534.075 303.093C534.251 303.526 534.532 303.743 534.919 303.743C535.687 303.743 536.07 302.873 536.07 301.133C536.07 299.416 535.687 298.558 534.919 298.558C534.532 298.558 534.251 298.769 534.075 299.19C533.905 299.612 533.82 300.26 533.82 301.133ZM537.775 301.133C537.775 302.48 537.532 303.491 537.046 304.165C536.56 304.839 535.851 305.176 534.919 305.176C534.028 305.176 533.337 304.83 532.845 304.139C532.353 303.441 532.106 302.439 532.106 301.133C532.106 298.455 533.044 297.116 534.919 297.116C535.821 297.116 536.521 297.462 537.02 298.153C537.523 298.845 537.775 299.838 537.775 301.133ZM535.165 292.15L528.037 305H526.332L533.46 292.15H535.165Z" fill="white"/>
<path d="M484.248 201.976C485.543 201.976 486.568 202.318 487.324 203.004C488.08 203.689 488.458 204.624 488.458 205.808C488.458 207.179 488.027 208.251 487.166 209.024C486.311 209.792 485.092 210.176 483.51 210.176C482.074 210.176 480.946 209.944 480.126 209.481V207.609C480.601 207.879 481.146 208.087 481.761 208.233C482.376 208.38 482.947 208.453 483.475 208.453C484.406 208.453 485.115 208.245 485.602 207.829C486.088 207.413 486.331 206.804 486.331 206.001C486.331 204.466 485.353 203.698 483.396 203.698C483.12 203.698 482.78 203.728 482.376 203.786C481.972 203.839 481.617 203.9 481.312 203.971L480.39 203.426L480.882 197.15H487.562V198.987H482.701L482.411 202.169C482.616 202.134 482.865 202.093 483.158 202.046C483.457 201.999 483.82 201.976 484.248 201.976ZM491.833 201C491.833 201.873 491.918 202.523 492.088 202.951C492.258 203.379 492.536 203.593 492.923 203.593C493.696 203.593 494.083 202.729 494.083 201C494.083 199.271 493.696 198.407 492.923 198.407C492.536 198.407 492.258 198.621 492.088 199.049C491.918 199.477 491.833 200.127 491.833 201ZM495.788 200.982C495.788 202.33 495.545 203.344 495.059 204.023C494.578 204.697 493.866 205.034 492.923 205.034C492.032 205.034 491.341 204.686 490.849 203.988C490.362 203.285 490.119 202.283 490.119 200.982C490.119 198.305 491.054 196.966 492.923 196.966C493.843 196.966 494.549 197.314 495.041 198.012C495.539 198.703 495.788 199.693 495.788 200.982ZM500.2 206.133C500.2 207.006 500.285 207.659 500.455 208.093C500.631 208.526 500.912 208.743 501.299 208.743C502.066 208.743 502.45 207.873 502.45 206.133C502.45 204.416 502.066 203.558 501.299 203.558C500.912 203.558 500.631 203.769 500.455 204.19C500.285 204.612 500.2 205.26 500.2 206.133ZM504.155 206.133C504.155 207.48 503.912 208.491 503.426 209.165C502.939 209.839 502.23 210.176 501.299 210.176C500.408 210.176 499.717 209.83 499.225 209.139C498.732 208.441 498.486 207.439 498.486 206.133C498.486 203.455 499.424 202.116 501.299 202.116C502.201 202.116 502.901 202.462 503.399 203.153C503.903 203.845 504.155 204.838 504.155 206.133ZM501.545 197.15L494.417 210H492.712L499.84 197.15H501.545Z" fill="white"/>
<path d="M377.191 117H375.126V108.703C375.126 107.713 375.149 106.928 375.196 106.348C375.062 106.488 374.895 106.644 374.695 106.813C374.502 106.983 373.846 107.522 372.727 108.431L371.689 107.121L375.469 104.15H377.191V117ZM390.577 114.196H388.846V117H386.833V114.196H380.962V112.605L386.833 104.115H388.846V112.482H390.577V114.196ZM386.833 112.482V109.257C386.833 108.108 386.862 107.168 386.921 106.436H386.851C386.687 106.822 386.429 107.291 386.077 107.842L382.887 112.482H386.833ZM392.071 115.901C392.071 115.474 392.183 115.146 392.405 114.917C392.628 114.688 392.95 114.574 393.372 114.574C393.8 114.574 394.125 114.694 394.348 114.935C394.57 115.169 394.682 115.491 394.682 115.901C394.682 116.317 394.567 116.648 394.339 116.895C394.116 117.135 393.794 117.255 393.372 117.255C392.95 117.255 392.628 117.135 392.405 116.895C392.183 116.654 392.071 116.323 392.071 115.901ZM398.109 117L403.189 105.987H396.51V104.168H405.396V105.609L400.342 117H398.109ZM408.595 108C408.595 108.873 408.68 109.523 408.85 109.951C409.02 110.379 409.298 110.593 409.685 110.593C410.458 110.593 410.845 109.729 410.845 108C410.845 106.271 410.458 105.407 409.685 105.407C409.298 105.407 409.02 105.621 408.85 106.049C408.68 106.477 408.595 107.127 408.595 108ZM412.55 107.982C412.55 109.33 412.307 110.344 411.82 111.023C411.34 111.697 410.628 112.034 409.685 112.034C408.794 112.034 408.103 111.686 407.61 110.988C407.124 110.285 406.881 109.283 406.881 107.982C406.881 105.305 407.815 103.966 409.685 103.966C410.604 103.966 411.311 104.314 411.803 105.012C412.301 105.703 412.55 106.693 412.55 107.982ZM416.962 113.133C416.962 114.006 417.047 114.659 417.217 115.093C417.393 115.526 417.674 115.743 418.061 115.743C418.828 115.743 419.212 114.873 419.212 113.133C419.212 111.416 418.828 110.558 418.061 110.558C417.674 110.558 417.393 110.769 417.217 111.19C417.047 111.612 416.962 112.26 416.962 113.133ZM420.917 113.133C420.917 114.48 420.674 115.491 420.188 116.165C419.701 116.839 418.992 117.176 418.061 117.176C417.17 117.176 416.479 116.83 415.986 116.139C415.494 115.441 415.248 114.439 415.248 113.133C415.248 110.455 416.186 109.116 418.061 109.116C418.963 109.116 419.663 109.462 420.161 110.153C420.665 110.845 420.917 111.838 420.917 113.133ZM418.307 104.15L411.179 117H409.474L416.602 104.15H418.307Z" fill="white"/>
<rect x="52" y="579" width="33" height="33" fill="#FFC90C"/>
<path d="M96.8848 588.723H101.123C103.089 588.723 104.508 589.009 105.381 589.582C106.26 590.155 106.699 591.06 106.699 592.297C106.699 593.13 106.484 593.824 106.055 594.377C105.625 594.93 105.007 595.279 104.199 595.422V595.52C105.202 595.708 105.938 596.083 106.406 596.643C106.882 597.196 107.119 597.948 107.119 598.898C107.119 600.181 106.67 601.187 105.771 601.916C104.88 602.639 103.636 603 102.041 603H96.8848V588.723ZM99.2188 594.621H101.465C102.441 594.621 103.154 594.468 103.604 594.162C104.053 593.85 104.277 593.322 104.277 592.58C104.277 591.91 104.033 591.424 103.545 591.125C103.063 590.826 102.295 590.676 101.24 590.676H99.2188V594.621ZM99.2188 596.516V601.037H101.699C102.676 601.037 103.411 600.852 103.906 600.48C104.408 600.103 104.658 599.51 104.658 598.703C104.658 597.961 104.404 597.411 103.896 597.053C103.389 596.695 102.617 596.516 101.582 596.516H99.2188ZM112.139 603H109.844V592.199H112.139V603ZM109.707 589.338C109.707 588.928 109.818 588.612 110.039 588.391C110.267 588.169 110.589 588.059 111.006 588.059C111.41 588.059 111.722 588.169 111.943 588.391C112.171 588.612 112.285 588.928 112.285 589.338C112.285 589.729 112.171 590.038 111.943 590.266C111.722 590.487 111.41 590.598 111.006 590.598C110.589 590.598 110.267 590.487 110.039 590.266C109.818 590.038 109.707 589.729 109.707 589.338ZM124.932 603H122.627V596.359C122.627 595.526 122.458 594.904 122.119 594.494C121.787 594.084 121.257 593.879 120.527 593.879C119.557 593.879 118.848 594.165 118.398 594.738C117.949 595.311 117.725 596.271 117.725 597.619V603H115.43V592.199H117.227L117.549 593.615H117.666C117.992 593.101 118.454 592.704 119.053 592.424C119.652 592.144 120.316 592.004 121.045 592.004C123.636 592.004 124.932 593.322 124.932 595.959V603ZM134.883 603L134.424 601.496H134.346C133.825 602.154 133.301 602.603 132.773 602.844C132.246 603.078 131.569 603.195 130.742 603.195C129.681 603.195 128.851 602.909 128.252 602.336C127.66 601.763 127.363 600.952 127.363 599.904C127.363 598.791 127.777 597.951 128.604 597.385C129.43 596.818 130.69 596.509 132.383 596.457L134.248 596.398V595.822C134.248 595.132 134.085 594.618 133.76 594.279C133.441 593.934 132.943 593.762 132.266 593.762C131.712 593.762 131.182 593.843 130.674 594.006C130.166 594.169 129.678 594.361 129.209 594.582L128.467 592.941C129.053 592.635 129.694 592.404 130.391 592.248C131.087 592.085 131.745 592.004 132.363 592.004C133.737 592.004 134.772 592.303 135.469 592.902C136.172 593.501 136.523 594.442 136.523 595.725V603H134.883ZM131.465 601.438C132.298 601.438 132.965 601.206 133.467 600.744C133.975 600.275 134.229 599.621 134.229 598.781V597.844L132.842 597.902C131.761 597.941 130.973 598.124 130.479 598.449C129.99 598.768 129.746 599.26 129.746 599.924C129.746 600.406 129.889 600.78 130.176 601.047C130.462 601.307 130.892 601.438 131.465 601.438ZM149.229 603H146.924V596.359C146.924 595.526 146.755 594.904 146.416 594.494C146.084 594.084 145.553 593.879 144.824 593.879C143.854 593.879 143.145 594.165 142.695 594.738C142.246 595.311 142.021 596.271 142.021 597.619V603H139.727V592.199H141.523L141.846 593.615H141.963C142.288 593.101 142.751 592.704 143.35 592.424C143.949 592.144 144.613 592.004 145.342 592.004C147.933 592.004 149.229 593.322 149.229 595.959V603ZM156.777 603.195C155.143 603.195 153.9 602.72 153.047 601.77C152.201 600.812 151.777 599.442 151.777 597.658C151.777 595.842 152.22 594.445 153.105 593.469C153.997 592.492 155.283 592.004 156.963 592.004C158.102 592.004 159.128 592.215 160.039 592.639L159.346 594.484C158.376 594.107 157.575 593.918 156.943 593.918C155.075 593.918 154.141 595.158 154.141 597.639C154.141 598.85 154.372 599.761 154.834 600.373C155.303 600.979 155.986 601.281 156.885 601.281C157.907 601.281 158.874 601.027 159.785 600.52V602.521C159.375 602.762 158.936 602.935 158.467 603.039C158.005 603.143 157.441 603.195 156.777 603.195ZM167.041 603.195C165.361 603.195 164.046 602.707 163.096 601.73C162.152 600.747 161.68 599.396 161.68 597.678C161.68 595.913 162.119 594.527 162.998 593.518C163.877 592.508 165.085 592.004 166.621 592.004C168.047 592.004 169.173 592.437 170 593.303C170.827 594.169 171.24 595.36 171.24 596.877V598.117H164.043C164.076 599.165 164.359 599.973 164.893 600.539C165.426 601.099 166.178 601.379 167.148 601.379C167.786 601.379 168.379 601.32 168.926 601.203C169.479 601.079 170.072 600.878 170.703 600.598V602.463C170.143 602.73 169.577 602.919 169.004 603.029C168.431 603.14 167.777 603.195 167.041 603.195ZM166.621 593.742C165.892 593.742 165.306 593.973 164.863 594.436C164.427 594.898 164.167 595.572 164.082 596.457H168.984C168.971 595.565 168.757 594.891 168.34 594.436C167.923 593.973 167.35 593.742 166.621 593.742Z" fill="black"/>
<rect x="203" y="579" width="33" height="33" fill="#CE1878"/>
<path d="M258.783 603H256.078L251.596 596.535L250.219 597.658V603H247.885V588.723H250.219V595.539C250.857 594.758 251.492 594.006 252.123 593.283L255.98 588.723H258.637C256.143 591.652 254.356 593.739 253.275 594.982L258.783 603ZM268.051 603L267.729 601.584H267.611C267.292 602.085 266.837 602.479 266.244 602.766C265.658 603.052 264.988 603.195 264.232 603.195C262.924 603.195 261.947 602.87 261.303 602.219C260.658 601.568 260.336 600.581 260.336 599.26V592.199H262.65V598.859C262.65 599.686 262.82 600.308 263.158 600.725C263.497 601.135 264.027 601.34 264.75 601.34C265.714 601.34 266.42 601.053 266.869 600.48C267.325 599.901 267.553 598.934 267.553 597.58V592.199H269.857V603H268.051ZM277.484 603.195C275.85 603.195 274.607 602.72 273.754 601.77C272.908 600.812 272.484 599.442 272.484 597.658C272.484 595.842 272.927 594.445 273.812 593.469C274.704 592.492 275.99 592.004 277.67 592.004C278.809 592.004 279.835 592.215 280.746 592.639L280.053 594.484C279.083 594.107 278.282 593.918 277.65 593.918C275.782 593.918 274.848 595.158 274.848 597.639C274.848 598.85 275.079 599.761 275.541 600.373C276.01 600.979 276.693 601.281 277.592 601.281C278.614 601.281 279.581 601.027 280.492 600.52V602.521C280.082 602.762 279.643 602.935 279.174 603.039C278.712 603.143 278.148 603.195 277.484 603.195ZM292.611 597.58C292.611 599.344 292.159 600.721 291.254 601.711C290.349 602.701 289.089 603.195 287.475 603.195C286.465 603.195 285.574 602.967 284.799 602.512C284.024 602.056 283.428 601.402 283.012 600.549C282.595 599.696 282.387 598.706 282.387 597.58C282.387 595.829 282.836 594.462 283.734 593.479C284.633 592.495 285.899 592.004 287.533 592.004C289.096 592.004 290.333 592.508 291.244 593.518C292.156 594.52 292.611 595.874 292.611 597.58ZM284.75 597.58C284.75 600.074 285.671 601.32 287.514 601.32C289.337 601.32 290.248 600.074 290.248 597.58C290.248 595.113 289.33 593.879 287.494 593.879C286.531 593.879 285.831 594.198 285.395 594.836C284.965 595.474 284.75 596.389 284.75 597.58ZM297.553 603H295.258V592.199H297.553V603ZM295.121 589.338C295.121 588.928 295.232 588.612 295.453 588.391C295.681 588.169 296.003 588.059 296.42 588.059C296.824 588.059 297.136 588.169 297.357 588.391C297.585 588.612 297.699 588.928 297.699 589.338C297.699 589.729 297.585 590.038 297.357 590.266C297.136 590.487 296.824 590.598 296.42 590.598C296.003 590.598 295.681 590.487 295.453 590.266C295.232 590.038 295.121 589.729 295.121 589.338ZM310.346 603H308.041V596.359C308.041 595.526 307.872 594.904 307.533 594.494C307.201 594.084 306.671 593.879 305.941 593.879C304.971 593.879 304.262 594.165 303.812 594.738C303.363 595.311 303.139 596.271 303.139 597.619V603H300.844V592.199H302.641L302.963 593.615H303.08C303.406 593.101 303.868 592.704 304.467 592.424C305.066 592.144 305.73 592.004 306.459 592.004C309.05 592.004 310.346 593.322 310.346 595.959V603Z" fill="black"/>
<rect x="342" y="579" width="33" height="33" fill="#028480"/>
<path d="M399.561 595.842C399.561 598.166 398.978 599.973 397.812 601.262C396.654 602.551 395.01 603.195 392.881 603.195C390.726 603.195 389.069 602.557 387.91 601.281C386.758 599.999 386.182 598.179 386.182 595.822C386.182 593.465 386.761 591.656 387.92 590.393C389.085 589.13 390.745 588.498 392.9 588.498C395.023 588.498 396.663 589.139 397.822 590.422C398.981 591.704 399.561 593.511 399.561 595.842ZM388.662 595.842C388.662 597.6 389.017 598.934 389.727 599.846C390.436 600.751 391.488 601.203 392.881 601.203C394.268 601.203 395.312 600.754 396.016 599.855C396.725 598.957 397.08 597.619 397.08 595.842C397.08 594.09 396.729 592.762 396.025 591.857C395.329 590.952 394.287 590.5 392.9 590.5C391.501 590.5 390.443 590.952 389.727 591.857C389.017 592.762 388.662 594.09 388.662 595.842ZM413.525 603H410.82L406.338 596.535L404.961 597.658V603H402.627V588.723H404.961V595.539C405.599 594.758 406.234 594.006 406.865 593.283L410.723 588.723H413.379C410.885 591.652 409.098 593.739 408.018 594.982L413.525 603ZM425.938 603H423.252L419.678 597.16L416.074 603H413.574L418.311 595.598L413.877 588.723H416.475L419.775 594.123L423.076 588.723H425.596L421.133 595.637L425.938 603Z" fill="black"/>
<rect x="456" y="579" width="33" height="33" fill="#535353"/>
<path d="M513.561 595.842C513.561 598.166 512.978 599.973 511.812 601.262C510.654 602.551 509.01 603.195 506.881 603.195C504.726 603.195 503.069 602.557 501.91 601.281C500.758 599.999 500.182 598.179 500.182 595.822C500.182 593.465 500.761 591.656 501.92 590.393C503.085 589.13 504.745 588.498 506.9 588.498C509.023 588.498 510.663 589.139 511.822 590.422C512.981 591.704 513.561 593.511 513.561 595.842ZM502.662 595.842C502.662 597.6 503.017 598.934 503.727 599.846C504.436 600.751 505.488 601.203 506.881 601.203C508.268 601.203 509.312 600.754 510.016 599.855C510.725 598.957 511.08 597.619 511.08 595.842C511.08 594.09 510.729 592.762 510.025 591.857C509.329 590.952 508.287 590.5 506.9 590.5C505.501 590.5 504.443 590.952 503.727 591.857C503.017 592.762 502.662 594.09 502.662 595.842ZM520.406 601.34C520.966 601.34 521.526 601.252 522.086 601.076V602.805C521.832 602.915 521.503 603.007 521.1 603.078C520.702 603.156 520.289 603.195 519.859 603.195C517.685 603.195 516.598 602.049 516.598 599.758V593.938H515.123V592.922L516.705 592.082L517.486 589.797H518.902V592.199H521.979V593.938H518.902V599.719C518.902 600.272 519.039 600.682 519.312 600.949C519.592 601.21 519.957 601.34 520.406 601.34ZM533.756 603H531.451V596.359C531.451 595.526 531.282 594.904 530.943 594.494C530.611 594.084 530.081 593.879 529.352 593.879C528.388 593.879 527.678 594.169 527.223 594.748C526.773 595.321 526.549 596.285 526.549 597.639V603H524.254V587.805H526.549V591.662C526.549 592.281 526.51 592.941 526.432 593.645H526.578C526.891 593.124 527.324 592.72 527.877 592.434C528.437 592.147 529.088 592.004 529.83 592.004C532.447 592.004 533.756 593.322 533.756 595.959V603ZM541.666 603.195C539.986 603.195 538.671 602.707 537.721 601.73C536.777 600.747 536.305 599.396 536.305 597.678C536.305 595.913 536.744 594.527 537.623 593.518C538.502 592.508 539.71 592.004 541.246 592.004C542.672 592.004 543.798 592.437 544.625 593.303C545.452 594.169 545.865 595.36 545.865 596.877V598.117H538.668C538.701 599.165 538.984 599.973 539.518 600.539C540.051 601.099 540.803 601.379 541.773 601.379C542.411 601.379 543.004 601.32 543.551 601.203C544.104 601.079 544.697 600.878 545.328 600.598V602.463C544.768 602.73 544.202 602.919 543.629 603.029C543.056 603.14 542.402 603.195 541.666 603.195ZM541.246 593.742C540.517 593.742 539.931 593.973 539.488 594.436C539.052 594.898 538.792 595.572 538.707 596.457H543.609C543.596 595.565 543.382 594.891 542.965 594.436C542.548 593.973 541.975 593.742 541.246 593.742ZM553.951 592.004C554.413 592.004 554.794 592.036 555.094 592.102L554.869 594.24C554.544 594.162 554.205 594.123 553.854 594.123C552.936 594.123 552.19 594.423 551.617 595.021C551.051 595.62 550.768 596.398 550.768 597.355V603H548.473V592.199H550.27L550.572 594.104H550.689C551.048 593.459 551.513 592.948 552.086 592.57C552.665 592.193 553.287 592.004 553.951 592.004Z" fill="black"/>
</g>
<defs>
<filter id="filter0_d_38_311" x="0" y="0" width="608" height="669" filterUnits="userSpaceOnUse" color-interpolation-filters="sRGB">
<feFlood flood-opacity="0" result="BackgroundImageFix"/>
<feColorMatrix in="SourceAlpha" type="matrix" values="0 0 0 0 0 0 0 0 0 0 0 0 0 0 0 0 0 0 127 0" result="hardAlpha"/>
<feOffset dy="5"/>
<feGaussianBlur stdDeviation="14"/>
<feComposite in2="hardAlpha" operator="out"/>
<feColorMatrix type="matrix" values="0 0 0 0 0 0 0 0 0 0 0 0 0 0 0 0 0 0 0.25 0"/>
<feBlend mode="normal" in2="BackgroundImageFix" result="effect1_dropShadow_38_311"/>
<feBlend mode="normal" in="SourceGraphic" in2="effect1_dropShadow_38_311" result="shape"/>
</filter>
</defs>
</svg>
